<svg width="14" height="7" viewBox="0 0 14 7" fill="none" xmlns="http://www.w3.org/2000/svg">
<path d="M12.8327 2.35099e-07C12.6427 4.60905e-05 12.4557 0.0435723 12.2877 0.126797C12.1198 0.210022 11.9761 0.330428 11.8691 0.477556C11.7621 0.624683 11.695 0.794081 11.6737 0.971032C11.6524 1.14798 11.6775 1.32714 11.7469 1.49293L9.29207 3.79438C9.01842 3.69339 8.71411 3.69339 8.44046 3.79438L6.68562 2.14916C6.75511 1.98333 6.78034 1.8041 6.75911 1.62705C6.73788 1.45 6.67084 1.28049 6.56381 1.13327C6.45679 0.986048 6.31302 0.865566 6.14502 0.782302C5.97702 0.699038 5.78986 0.655514 5.59982 0.655514C5.40979 0.655514 5.22263 0.699038 5.05463 0.782302C4.88662 0.865566 4.74286 0.986048 4.63584 1.13327C4.52881 1.28049 4.46177 1.45 4.44054 1.62705C4.41931 1.8041 4.44454 1.98333 4.51403 2.14916L1.59261 4.8881C1.34311 4.79634 1.06752 4.78792 0.812182 4.86425C0.556843 4.94059 0.337323 5.09702 0.190536 5.30725C0.0437482 5.51748 -0.0213555 5.76868 0.00617153 6.01862C0.0336985 6.26855 0.152177 6.50198 0.341687 6.67966C0.531196 6.85733 0.780177 6.96841 1.04677 6.99421C1.31336 7.02002 1.58129 6.95898 1.80553 6.82137C2.02976 6.68375 2.19662 6.47794 2.27804 6.23855C2.35945 5.99916 2.35047 5.74078 2.2526 5.50687L5.17402 2.76793C5.44767 2.86892 5.75198 2.86892 6.02563 2.76793L7.78046 4.41315C7.71098 4.57898 7.68575 4.75821 7.70698 4.93526C7.72821 5.11231 7.79525 5.28182 7.90227 5.42904C8.0093 5.57626 8.15306 5.69674 8.32107 5.78001C8.48907 5.86327 8.67623 5.9068 8.86626 5.9068C9.0563 5.9068 9.24345 5.86327 9.41146 5.78001C9.57946 5.69674 9.72323 5.57626 9.83025 5.42904C9.93727 5.28182 10.0043 5.11231 10.0255 4.93526C10.0468 4.75821 10.0215 4.57898 9.95206 4.41315L12.4068 2.1117C12.5666 2.17053 12.7382 2.1956 12.9095 2.18511C13.0807 2.17462 13.2474 2.12883 13.3976 2.05101C13.5478 1.97319 13.6779 1.86526 13.7785 1.7349C13.8791 1.60455 13.9478 1.45499 13.9797 1.29688C14.0116 1.13878 14.0059 0.976027 13.9629 0.820233C13.92 0.66444 13.841 0.519443 13.7314 0.395583C13.6219 0.271722 13.4845 0.172049 13.3292 0.103671C13.1738 0.0352931 13.0043 -0.000105258 12.8327 2.35099e-07Z" fill="white"/>
</svg>
