<svg width="25" height="25" viewBox="0 0 25 25" fill="none" xmlns="http://www.w3.org/2000/svg">
<g clip-path="url(#clip0_1467_5)">
<path d="M22.8393 4.89005C21.5975 3.354 20.0261 2.11694 18.2414 1.27047C16.4567 0.424007 14.5045 -0.0101814 12.5293 5.4804e-05C9.21409 5.4804e-05 6.03467 1.31702 3.69046 3.66122C1.34626 6.00542 0.0292969 9.18485 0.0292969 12.5001C0.0292969 15.8153 1.34626 18.9947 3.69046 21.3389C6.03467 23.6831 9.21409 25.0001 12.5293 25.0001C17.5293 25.0001 19.7893 23.0001 20.2993 21.0001C20.4698 20.3981 20.4345 19.7564 20.199 19.1767C19.9635 18.5971 19.5413 18.1126 18.9993 17.8001C16.8893 16.6101 16.4993 15.0501 16.9993 14.0401C17.4993 13.0301 18.9093 12.5901 20.5593 13.4601C21.1347 13.7546 21.7952 13.8379 22.4257 13.6953C23.0561 13.5528 23.6166 13.1935 24.0093 12.6801C25.2993 11.2501 25.5993 8.45005 22.8393 4.89005ZM6.4993 16.5001C6.10373 16.5001 5.71705 16.3828 5.38816 16.163C5.05926 15.9432 4.80291 15.6309 4.65154 15.2654C4.50016 14.9 4.46056 14.4978 4.53773 14.1099C4.6149 13.7219 4.80538 13.3655 5.08508 13.0858C5.36479 12.8061 5.72115 12.6157 6.10912 12.5385C6.49708 12.4613 6.89921 12.5009 7.26466 12.6523C7.63012 12.8037 7.94247 13.06 8.16224 13.3889C8.382 13.7178 8.4993 14.1045 8.4993 14.5001C8.4993 15.0305 8.28858 15.5392 7.91351 15.9143C7.53844 16.2893 7.02973 16.5001 6.4993 16.5001ZM6.4993 7.50005C6.4993 7.10449 6.61659 6.71781 6.83636 6.38891C7.05612 6.06002 7.36848 5.80367 7.73393 5.6523C8.09938 5.50092 8.50152 5.46131 8.88948 5.53848C9.27744 5.61565 9.63381 5.80614 9.91351 6.08584C10.1932 6.36555 10.3837 6.72191 10.4609 7.10987C10.538 7.49784 10.4984 7.89997 10.3471 8.26542C10.1957 8.63087 9.93934 8.94323 9.61044 9.16299C9.28154 9.38276 8.89486 9.50005 8.4993 9.50005C7.96886 9.50005 7.46016 9.28934 7.08508 8.91427C6.71001 8.53919 6.4993 8.03049 6.4993 7.50005ZM11.4993 21.5001C11.1037 21.5001 10.7171 21.3828 10.3882 21.163C10.0593 20.9432 9.80291 20.6309 9.65154 20.2654C9.50016 19.9 9.46056 19.4978 9.53773 19.1099C9.6149 18.7219 9.80538 18.3655 10.0851 18.0858C10.3648 17.8061 10.7212 17.6157 11.1091 17.5385C11.4971 17.4613 11.8992 17.5009 12.2647 17.6523C12.6301 17.8037 12.9425 18.06 13.1622 18.3889C13.382 18.7178 13.4993 19.1045 13.4993 19.5001C13.4993 20.0305 13.2886 20.5392 12.9135 20.9143C12.5384 21.2893 12.0297 21.5001 11.4993 21.5001ZM15.4993 8.50005C15.1037 8.50005 14.7171 8.38276 14.3882 8.16299C14.0593 7.94323 13.8029 7.63087 13.6515 7.26542C13.5002 6.89997 13.4606 6.49784 13.5377 6.10987C13.6149 5.72191 13.8054 5.36555 14.0851 5.08584C14.3648 4.80614 14.7212 4.61565 15.1091 4.53848C15.4971 4.46131 15.8992 4.50092 16.2647 4.6523C16.6301 4.80367 16.9425 5.06002 17.1622 5.38891C17.382 5.71781 17.4993 6.10449 17.4993 6.50005C17.4993 7.03049 17.2886 7.5392 16.9135 7.91427C16.5384 8.28934 16.0297 8.50005 15.4993 8.50005V8.50005Z" fill="white"/>
</g>
<defs>
<clipPath id="clip0_1467_5">
<rect width="25" height="25" fill="white"/>
</clipPath>
</defs>
</svg>
