<svg width="14" height="14" viewBox="0 0 14 14" fill="none" xmlns="http://www.w3.org/2000/svg">
<g clip-path="url(#clip0_598_907)">
<path d="M8.75 5.6875H5.25C5.01801 5.68773 4.79558 5.77999 4.63154 5.94404C4.46749 6.10808 4.37523 6.33051 4.375 6.5625V12.25C4.37523 12.482 4.46749 12.7044 4.63154 12.8685C4.79558 13.0325 5.01801 13.1248 5.25 13.125H8.75C8.98199 13.1248 9.20442 13.0325 9.36846 12.8685C9.53251 12.7044 9.62477 12.482 9.625 12.25V6.5625C9.62477 6.33051 9.53251 6.10808 9.36846 5.94404C9.20442 5.77999 8.98199 5.68773 8.75 5.6875ZM8.75 6.5625V7.875H5.25V6.5625H8.75ZM8.75 8.75V10.0625H5.25V8.75H8.75ZM5.25 12.25V10.9375H8.75V12.25H5.25Z" fill="white"/>
<path d="M11.3363 4.43173C11.3258 4.42984 11.3162 4.42487 11.3087 4.41746C11.3011 4.41005 11.2959 4.40054 11.2938 4.39016C11.1224 3.53807 10.7012 2.7563 10.0839 2.14445C9.46657 1.53259 8.68109 1.11834 7.82751 0.954476C6.69334 0.735342 5.51853 0.973559 4.5593 1.61717C3.60006 2.26079 2.93423 3.25758 2.70701 4.39016C2.70491 4.40054 2.69974 4.41005 2.69217 4.41746C2.68461 4.42487 2.675 4.42984 2.66458 4.43173C1.86274 4.58534 1.14694 5.03228 0.656927 5.68529C0.166913 6.3383 -0.0621364 7.1505 0.0144986 7.96331C0.0911336 8.77613 0.467951 9.5312 1.07138 10.0811C1.67481 10.631 2.46154 10.9363 3.27795 10.9374H3.50064V10.0624H3.2797C2.93448 10.0614 2.59349 9.98633 2.2798 9.84219C1.96611 9.69805 1.68704 9.48822 1.46146 9.22688C1.23589 8.96555 1.06907 8.65882 0.972307 8.32744C0.87554 7.99606 0.851079 7.64776 0.900576 7.3061C0.988854 6.79374 1.23506 6.32178 1.60477 5.95623C1.97447 5.59068 2.44919 5.34983 2.96251 5.26735L3.40745 5.18685C3.41882 5.18483 3.42931 5.17939 3.43751 5.17126C3.44572 5.16314 3.45126 5.1527 3.45339 5.14135L3.53214 4.73229C3.66256 3.99007 4.02122 3.307 4.55816 2.77822C5.09509 2.24944 5.78357 1.90128 6.5277 1.78223C6.9428 1.72535 7.36475 1.74388 7.77326 1.83691C8.45092 2.002 9.06595 2.36059 9.54344 2.86899C10.0209 3.3774 10.3403 4.01368 10.4626 4.70035L10.5475 5.14135C10.5496 5.1527 10.5551 5.16314 10.5633 5.17126C10.5715 5.17939 10.582 5.18483 10.5934 5.18685L11.0558 5.27041C11.5663 5.35115 12.0397 5.58627 12.4125 5.94416C12.7508 6.27983 12.982 6.70832 13.0767 7.17541C13.1714 7.64251 13.1253 8.12719 12.9444 8.56811C12.7635 9.00904 12.4559 9.38638 12.0604 9.65237C11.665 9.91836 11.1995 10.061 10.7229 10.0624H10.5006V10.9374H10.7229C11.5393 10.9363 12.326 10.631 12.9295 10.0811C13.5329 9.5312 13.9097 8.77613 13.9863 7.96331C14.063 7.1505 13.8339 6.3383 13.3439 5.68529C12.8539 5.03228 12.1381 4.58534 11.3363 4.43173Z" fill="white"/>
</g>
<defs>
<clipPath id="clip0_598_907">
<rect width="14" height="14" fill="white"/>
</clipPath>
</defs>
</svg>
