<svg width="14" height="14" viewBox="0 0 14 14" fill="none" xmlns="http://www.w3.org/2000/svg">
<path d="M6.9241 14L13.8482 11.3623L10.0312 9.90819L13.8482 8.45409L10.0312 7L13.8482 5.54591L10.0312 4.09182L13.8482 2.63772L6.9241 0L0 2.63772L3.81699 4.09182L0 5.54591L3.81699 7L0 8.45409L3.81699 9.90819L0 11.3623L6.9241 14ZM1.63382 2.63772L6.9241 0.622351L12.2144 2.63772L9.21429 3.78064L6.9241 4.6531L4.6339 3.78064L1.63382 2.63772ZM1.63382 5.54591L4.6339 4.40299L6.9241 5.27545L9.21429 4.40299L12.2144 5.54591L9.21429 6.68882L6.9241 7.56128L4.6339 6.68882L1.63382 5.54591ZM1.63382 8.45409L4.6339 7.31118L6.9241 8.18363L9.21429 7.31118L12.2144 8.45409L9.21429 9.59701L6.9241 10.4695L4.6339 9.59701L1.63382 8.45409ZM9.21429 10.2194L12.2144 11.3623L6.9241 13.3776L1.63382 11.3623L4.6339 10.2194L6.9241 11.0918L9.21429 10.2194Z" fill="white"/>
</svg>
