<svg width="17" height="17" viewBox="0 0 17 17" fill="none" xmlns="http://www.w3.org/2000/svg">
<path d="M4.24922 2.9748C4.24922 2.86209 4.294 2.75399 4.3737 2.67428C4.4534 2.59458 4.5615 2.5498 4.67422 2.5498H7.22422C7.33694 2.5498 7.44504 2.59458 7.52474 2.67428C7.60444 2.75399 7.64922 2.86209 7.64922 2.9748V5.5248C7.64922 5.63752 7.60444 5.74562 7.52474 5.82533C7.44504 5.90503 7.33694 5.9498 7.22422 5.9498H4.67422C4.5615 5.9498 4.4534 5.90503 4.3737 5.82533C4.294 5.74562 4.24922 5.63752 4.24922 5.5248V2.9748ZM9.77422 2.5498C9.6615 2.5498 9.5534 2.59458 9.4737 2.67428C9.39399 2.75399 9.34922 2.86209 9.34922 2.9748V5.5248C9.34922 5.63752 9.39399 5.74562 9.4737 5.82533C9.5534 5.90503 9.6615 5.9498 9.77422 5.9498H12.3242C12.4369 5.9498 12.545 5.90503 12.6247 5.82533C12.7044 5.74562 12.7492 5.63752 12.7492 5.5248V2.9748C12.7492 2.86209 12.7044 2.75399 12.6247 2.67428C12.545 2.59458 12.4369 2.5498 12.3242 2.5498H9.77422ZM10.1992 5.0998V3.3998H11.8992V5.0998H10.1992ZM5.09922 11.0498C5.32465 11.0498 5.54085 10.9603 5.70026 10.8008C5.85966 10.6414 5.94922 10.4252 5.94922 10.1998C5.94922 9.97437 5.85966 9.75817 5.70026 9.59876C5.54085 9.43936 5.32465 9.3498 5.09922 9.3498C4.87378 9.3498 4.65758 9.43936 4.49818 9.59876C4.33877 9.75817 4.24922 9.97437 4.24922 10.1998C4.24922 10.4252 4.33877 10.6414 4.49818 10.8008C4.65758 10.9603 4.87378 11.0498 5.09922 11.0498ZM9.34922 10.1998C9.34922 10.4252 9.25967 10.6414 9.10026 10.8008C8.94085 10.9603 8.72465 11.0498 8.49922 11.0498C8.27378 11.0498 8.05758 10.9603 7.89818 10.8008C7.73877 10.6414 7.64922 10.4252 7.64922 10.1998C7.64922 9.97437 7.73877 9.75817 7.89818 9.59876C8.05758 9.43936 8.27378 9.3498 8.49922 9.3498C8.72465 9.3498 8.94085 9.43936 9.10026 9.59876C9.25967 9.75817 9.34922 9.97437 9.34922 10.1998ZM11.8992 11.0498C12.1247 11.0498 12.3409 10.9603 12.5003 10.8008C12.6597 10.6414 12.7492 10.4252 12.7492 10.1998C12.7492 9.97437 12.6597 9.75817 12.5003 9.59876C12.3409 9.43936 12.1247 9.3498 11.8992 9.3498C11.6738 9.3498 11.4576 9.43936 11.2982 9.59876C11.1388 9.75817 11.0492 9.97437 11.0492 10.1998C11.0492 10.4252 11.1388 10.6414 11.2982 10.8008C11.4576 10.9603 11.6738 11.0498 11.8992 11.0498ZM1.69922 10.1998C1.69922 9.29807 2.05743 8.43327 2.69506 7.79564C3.33268 7.15802 4.19748 6.7998 5.09922 6.7998H11.8992C12.801 6.7998 13.6658 7.15802 14.3034 7.79564C14.941 8.43327 15.2992 9.29807 15.2992 10.1998C15.2992 11.1015 14.941 11.9663 14.3034 12.604C13.6658 13.2416 12.801 13.5998 11.8992 13.5998H5.09922C4.19748 13.5998 3.33268 13.2416 2.69506 12.604C2.05743 11.9663 1.69922 11.1015 1.69922 10.1998ZM5.09922 7.64981C4.42292 7.64981 3.77431 7.91846 3.2961 8.39668C2.81788 8.8749 2.54922 9.5235 2.54922 10.1998C2.54922 10.8761 2.81788 11.5247 3.2961 12.0029C3.77431 12.4811 4.42292 12.7498 5.09922 12.7498H11.8992C12.5755 12.7498 13.2241 12.4811 13.7023 12.0029C14.1806 11.5247 14.4492 10.8761 14.4492 10.1998C14.4492 9.5235 14.1806 8.8749 13.7023 8.39668C13.2241 7.91846 12.5755 7.64981 11.8992 7.64981H5.09922Z" fill="white"/>
</svg>
