<svg width="828" height="640" viewBox="0 0 828 876" fill="none" xmlns="http://www.w3.org/2000/svg">
<path d="M555.821 136.331C555.821 136.331 420.214 88.3795 286.925 165.224C153.637 242.069 86.2252 394.329 28.3867 516.319C-29.4519 638.308 3.53894 762.18 105.109 818.606C206.68 875.033 275.992 791.562 418.557 787.22C561.122 782.878 599.501 803.244 717.968 722.703C836.435 642.161 858.057 452.238 764.908 311.87C671.76 171.502 555.821 136.331 555.821 136.331Z" fill="#92E3A9"/>
<path opacity="0.7" d="M555.821 136.331C555.821 136.331 420.214 88.3795 286.925 165.224C153.637 242.069 86.2252 394.329 28.3867 516.319C-29.4519 638.308 3.53894 762.18 105.109 818.606C206.68 875.033 275.992 791.562 418.557 787.22C561.122 782.878 599.501 803.244 717.968 722.703C836.435 642.161 858.057 452.238 764.908 311.87C671.76 171.502 555.821 136.331 555.821 136.331Z" fill="white"/>
<path d="M734.304 663.47L803.39 611.403L725.289 650.444L770.347 573.355L710.276 642.441L726.597 563.974L734.304 565.718L727.417 559.946L730.904 542.858L790.382 549.676L713.275 524.636L792.37 510.687H703.197L772.282 458.62L694.182 497.678L729.474 437.277L765.342 445.612L738.071 422.647L739.326 420.502L737.722 422.351L734.235 419.508L810.33 428.227C810.61 428.279 810.899 428.219 811.137 428.062C811.374 427.904 811.541 427.66 811.602 427.382C811.663 427.104 811.614 426.813 811.464 426.57C811.315 426.328 811.077 426.153 810.801 426.082L744.244 404.46L810.923 392.655C811.197 392.606 811.443 392.457 811.612 392.236C811.781 392.014 811.862 391.738 811.838 391.461C811.814 391.183 811.687 390.925 811.482 390.736C811.277 390.547 811.009 390.442 810.731 390.441H734.304L794.793 344.861C795.025 344.724 795.192 344.501 795.259 344.241C795.326 343.981 795.287 343.706 795.151 343.474C795.014 343.243 794.792 343.076 794.532 343.008C794.272 342.941 793.996 342.98 793.765 343.117L725.289 377.363L765.046 309.359C765.198 309.148 765.261 308.886 765.22 308.629C765.179 308.373 765.038 308.143 764.828 307.99C764.617 307.837 764.355 307.775 764.098 307.815C763.842 307.856 763.612 307.998 763.459 308.208L710.276 369.394L729.649 276.176C729.676 275.995 729.638 275.81 729.541 275.654C729.444 275.499 729.294 275.383 729.12 275.329C728.945 275.274 728.756 275.284 728.588 275.356C728.419 275.428 728.282 275.558 728.201 275.723L692.246 362.385L689.125 280.431C689.125 280.084 688.987 279.751 688.742 279.506C688.497 279.261 688.164 279.123 687.817 279.123C687.47 279.123 687.138 279.261 686.893 279.506C686.647 279.751 686.51 280.084 686.51 280.431L680.232 364.338L643.737 283.447C643.624 283.198 643.421 283 643.168 282.894C642.915 282.788 642.632 282.782 642.375 282.877C642.118 282.973 641.907 283.162 641.784 283.407C641.661 283.652 641.636 283.934 641.714 284.197L667.207 373.527L603.475 304.006L656.605 385.559L656.448 387.581L580.318 333.265L644.068 393.684L579.812 363.937C579.758 363.902 579.696 363.879 579.632 363.868C579.569 363.858 579.503 363.86 579.44 363.874C579.377 363.889 579.317 363.916 579.264 363.953C579.212 363.991 579.167 364.039 579.132 364.094C579.098 364.149 579.075 364.21 579.064 364.274C579.053 364.338 579.056 364.403 579.07 364.466C579.085 364.529 579.112 364.589 579.149 364.642C579.187 364.694 579.234 364.739 579.289 364.774L618.802 391.435L621.487 407.233L585.462 402.542C585.316 402.514 585.166 402.546 585.043 402.629C584.92 402.712 584.836 402.841 584.808 402.987C584.78 403.132 584.812 403.283 584.895 403.406C584.978 403.528 585.107 403.613 585.253 403.641L622.673 414.225L624.416 424.077L591.6 429.465L581.138 414.504L628.218 509.623L555.976 462.421L623.213 524.636L548.67 494.121L616.203 530.652L546.264 524.601L614.268 540.661L567.031 551.437L616.273 547.67L583.23 569.693L640.982 554.157L659.604 619.982C659.604 625.213 659.761 631.612 659.848 638.465L603.422 576.912L659.221 662.441L580.336 606.172L654.199 677.524L570.501 631.821L647.137 683.522L577.825 674.507L645.132 693.548L591.234 702.546L647.137 700.558L614.094 722.581L660.337 710.131C660.232 718.85 660.11 729.05 659.988 739.129C659.848 751.579 659.709 763.541 659.622 771.579H639.709C638.163 771.585 636.645 771.99 635.301 772.754C633.958 773.517 632.833 774.614 632.036 775.938L610.589 811.649C608.909 814.471 607.81 817.599 607.355 820.85C606.9 824.102 607.098 827.412 607.938 830.586L617.476 866.07C618.196 868.76 619.782 871.138 621.988 872.836C624.194 874.535 626.898 875.46 629.682 875.469H727.33C730.112 875.451 732.811 874.523 735.016 872.826C737.22 871.128 738.808 868.755 739.535 866.07L749.056 830.586C749.901 827.412 750.102 824.102 749.647 820.849C749.192 817.597 748.09 814.469 746.406 811.649L724.976 775.938C724.18 774.609 723.053 773.509 721.706 772.745C720.358 771.981 718.835 771.579 717.286 771.579H692.874C692.874 752.991 693.083 727.986 693.205 701.831L765.203 718.588L734.165 692.554L821.35 702.563L744.313 677.524L823.425 663.574L734.304 663.47ZM730.678 542.805L724.575 557.522L703.197 539.667L730.678 542.805ZM725.586 436.283L693.31 473.406C693.188 455.83 693.066 439.753 692.979 428.68L725.586 436.283ZM661.766 575.203C660.581 569.292 661.261 557.208 661.958 548.839L678.959 552.814C677.913 556.04 677.599 559.981 677.094 566.555C676.954 568.298 676.815 570.286 676.623 572.483C676.082 578.987 675.053 580.365 673.362 582.632C671.446 585.1 669.907 587.838 668.794 590.757C667.389 595.748 666.473 600.864 666.056 606.032L664.678 602.981C664.464 593.658 663.49 584.368 661.766 575.203ZM673.641 592.64C674.589 590.134 675.906 587.784 677.547 585.666C679.796 582.632 681.209 580.26 681.836 572.815C682.028 570.6 682.168 568.63 682.307 566.851C682.813 560.312 683.092 556.598 684.051 553.895L686.387 554.436L680.232 637.419L670.293 615.343C671.374 604.288 672.542 595.465 673.641 592.693V592.64ZM679.221 489.535L687.939 447.878C687.939 457.347 688.096 468.105 688.166 479.265L679.221 489.535ZM682.551 431.069L661.208 482.578L659.465 437.329L682.551 431.069ZM657.564 386.901L659.203 389.412L657.616 388.279L657.564 386.901ZM652.577 439.212L649.194 484.548L636.099 443.589L652.577 439.212ZM633.797 436.457L631.13 428.175L647.189 427.599L633.797 436.457ZM619.499 391.836L647.137 410.493L624.469 407.547L619.499 391.836ZM627.014 415.376L645.132 420.502L629.438 423.118L627.014 415.376ZM591.6 429.5L625.131 428.297L627.259 440.834L614.198 449.552L628.148 445.821L636.256 493.616L591.6 429.5ZM656.657 549.902C655.995 558.464 655.454 570.059 656.657 576.215C657.459 580.208 658.087 584.602 658.558 589.275L642.533 553.721L656.657 549.902ZM664.835 771.544C664.835 763.575 665.062 751.579 665.202 739.146C665.324 728.492 665.463 717.664 665.568 708.684L688.044 702.633C687.922 728.475 687.8 753.2 687.713 771.544H664.835ZM693.746 556.267L722.377 562.91L693.659 632.013C693.781 604.114 693.868 581.097 693.868 571.699C693.868 567.758 693.851 562.44 693.816 556.267H693.746Z" fill="#C7C7C7"/>
<path d="M618.629 271.241C655.705 271.241 685.761 241.185 685.761 204.109C685.761 167.032 655.705 136.976 618.629 136.976C581.552 136.976 551.496 167.032 551.496 204.109C551.496 241.185 581.552 271.241 618.629 271.241Z" stroke="#263238" stroke-width="1.12548" stroke-miterlimit="10" stroke-linecap="round"/>
<path d="M618.627 264.72C652.101 264.72 679.238 237.583 679.238 204.109C679.238 170.634 652.101 143.498 618.627 143.498C585.152 143.498 558.016 170.634 558.016 204.109C558.016 237.583 585.152 264.72 618.627 264.72Z" stroke="#263238" stroke-width="1.12548" stroke-miterlimit="10" stroke-linecap="round"/>
<path d="M642.675 211.572L618.629 204.108L647.103 162.835" stroke="#263238" stroke-width="1.12548" stroke-miterlimit="10" stroke-linecap="round"/>
<path d="M618.627 207.509C620.505 207.509 622.027 205.987 622.027 204.109C622.027 202.231 620.505 200.708 618.627 200.708C616.749 200.708 615.227 202.231 615.227 204.109C615.227 205.987 616.749 207.509 618.627 207.509Z" fill="#263238" stroke="#263238" stroke-width="1.12548" stroke-miterlimit="10"/>
<path d="M595.176 185.538C601.965 185.538 607.469 180.034 607.469 173.245C607.469 166.456 601.965 160.952 595.176 160.952C588.387 160.952 582.883 166.456 582.883 173.245C582.883 180.034 588.387 185.538 595.176 185.538Z" stroke="#263238" stroke-width="1.12548" stroke-miterlimit="10" stroke-linecap="round"/>
<path d="M600.442 194.518C600.442 195.039 600.287 195.548 599.998 195.981C599.709 196.414 599.298 196.752 598.816 196.951C598.335 197.15 597.806 197.202 597.295 197.101C596.784 196.999 596.315 196.748 595.947 196.38C595.579 196.012 595.328 195.543 595.226 195.032C595.125 194.521 595.177 193.992 595.376 193.511C595.576 193.03 595.913 192.618 596.346 192.329C596.779 192.04 597.288 191.885 597.809 191.885C598.155 191.885 598.497 191.953 598.816 192.086C599.136 192.218 599.426 192.412 599.671 192.657C599.915 192.901 600.109 193.191 600.241 193.511C600.374 193.83 600.442 194.173 600.442 194.518V194.518Z" stroke="#263238" stroke-width="1.12548" stroke-miterlimit="10" stroke-linecap="round"/>
<path d="M54.489 203.237H400.457V874.614H33.8262V203.237H44.114" stroke="#263238" stroke-width="1.12548" stroke-miterlimit="10"/>
<path d="M389.349 217.762H278.24V860.072H389.349V217.762Z" stroke="#263238" stroke-width="1.12548" stroke-miterlimit="10"/>
<path d="M265.529 217.762H160.785V860.072H265.529V217.762Z" stroke="#263238" stroke-width="1.12548" stroke-miterlimit="10"/>
<path d="M148.09 392.464V380.798" stroke="#263238" stroke-width="1.12548" stroke-miterlimit="10"/>
<path d="M148.091 370.423V217.762H44.9336V860.072H148.091V406.727" stroke="#263238" stroke-width="1.12548" stroke-miterlimit="10"/>
<path d="M208.996 874.754V471.505C208.996 469.416 209.408 467.346 210.208 465.416C211.009 463.485 212.181 461.731 213.66 460.254C215.139 458.778 216.894 457.607 218.825 456.808C220.756 456.01 222.826 455.601 224.916 455.603H485.233C489.451 455.603 493.496 457.278 496.478 460.261C499.46 463.243 501.136 467.288 501.136 471.505V874.126" stroke="#263238" stroke-width="4.50194" stroke-linejoin="round"/>
<path d="M517.388 529.047L509.716 523.816C498.599 515.914 489.938 505.035 484.729 492.43L478.26 477.504H468.094L461.695 492.43C456.485 505.035 447.824 515.914 436.707 523.816L429.035 529.047C426.823 530.68 425.035 532.819 423.821 535.286C422.607 537.753 422.003 540.475 422.06 543.224H524.189C524.266 540.49 523.689 537.777 522.506 535.312C521.323 532.846 519.569 530.698 517.388 529.047ZM476.098 536.946H432.209C432.209 532.238 439.724 527.879 442.671 525.49L447.902 521.183C455.835 514.449 461.81 505.704 465.2 495.865L469.628 483.781H476.603L481.032 495.865C484.421 505.708 490.403 514.455 498.347 521.183L503.578 525.49C506.56 527.879 513.919 532.238 513.919 536.946H476.098Z" fill="white" stroke="#263238" stroke-width="1.12548" stroke-linecap="round" stroke-linejoin="round"/>
<path d="M473.187 477.26V466.309C473.187 466.309 479.447 461.619 479.447 454.836C479.447 448.053 474.215 445.437 468.496 447.53" stroke="#263238" stroke-width="1.12548" stroke-linecap="round" stroke-linejoin="round"/>
<path d="M444.016 512.517C444.016 512.517 455.646 525.926 470.276 526.153C485.795 526.397 504.034 512.814 504.034 512.814C508.192 516.402 512.723 519.535 517.547 522.16C525.673 526.589 531.026 533.076 535.281 544.322C540.041 556.86 550.521 590.949 550.521 590.949L520.32 592.414L524.452 660.941H423.98L430.781 591.193H401.539C401.539 591.193 411.251 545.125 415.698 536.267C420.144 527.409 444.016 512.517 444.016 512.517Z" fill="white" stroke="#263238" stroke-width="1.12548" stroke-linecap="round" stroke-linejoin="round"/>
<path d="M430.777 591.123L432.312 554.506" stroke="#263238" stroke-width="1.12548" stroke-linecap="round" stroke-linejoin="round"/>
<path d="M520.317 592.414L517.945 556.859" stroke="#263238" stroke-width="1.12548" stroke-linecap="round" stroke-linejoin="round"/>
<path d="M501.746 529.047L494.074 523.816C482.957 515.914 474.296 505.035 469.087 492.43L462.688 477.504H452.522L446.122 492.43C440.919 505.038 432.256 515.919 421.135 523.816L413.463 529.047C411.251 530.68 409.462 532.819 408.249 535.286C407.035 537.753 406.431 540.475 406.488 543.224H508.617C508.686 540.484 508.098 537.768 506.903 535.301C505.708 532.835 503.94 530.691 501.746 529.047ZM460.456 536.946H416.567C416.567 532.238 424.082 527.879 427.029 525.49L432.347 521.183C440.281 514.449 446.255 505.704 449.645 495.865L454.074 483.781H461.048L465.478 495.865C468.866 505.708 474.848 514.455 482.792 521.183L488.024 525.49C491.005 527.879 498.364 532.238 498.364 536.946H460.456Z" fill="white" stroke="#263238" stroke-width="1.12548" stroke-linecap="round" stroke-linejoin="round"/>
<path d="M457.542 477.26V466.309C457.542 466.309 463.802 461.619 463.802 454.836C463.802 448.053 458.571 445.437 452.852 447.53" stroke="#263238" stroke-width="1.12548" stroke-linecap="round" stroke-linejoin="round"/>
<path d="M428.371 512.517C428.371 512.517 440.001 525.926 454.631 526.153C470.15 526.397 488.389 512.814 488.389 512.814C492.547 516.402 497.078 519.535 501.903 522.16C510.046 526.589 515.381 533.076 519.636 544.322C524.396 556.86 534.893 590.949 534.893 590.949L504.675 592.414L508.808 660.941H408.336L415.136 591.193H385.842C385.842 591.193 395.537 545.002 399.966 536.284C404.395 527.565 428.371 512.517 428.371 512.517Z" fill="#6B6B6B" stroke="#263238" stroke-width="1.12548" stroke-linecap="round" stroke-linejoin="round"/>
<path d="M415.137 591.123L416.671 554.506" stroke="#263238" stroke-width="1.12548" stroke-linecap="round" stroke-linejoin="round"/>
<path d="M504.676 592.414L502.305 556.859" stroke="#263238" stroke-width="1.12548" stroke-linecap="round" stroke-linejoin="round"/>
<path d="M415.328 493.162L442.547 494.47V611.054H410.219L415.328 493.162Z" fill="white" stroke="#263238" stroke-width="1.12548" stroke-linecap="round" stroke-linejoin="round"/>
<path d="M474.266 526.659L466.594 521.428C455.472 513.526 446.805 502.647 441.589 490.041L435.207 475.115H425.041L418.642 490.041C413.432 502.646 404.771 513.525 393.655 521.428L385.982 526.659C383.77 528.291 381.982 530.43 380.768 532.897C379.554 535.364 378.951 538.086 379.008 540.835H481.136C481.205 538.095 480.617 535.379 479.422 532.913C478.227 530.447 476.459 528.302 474.266 526.659ZM432.923 534.54H389.086C389.086 529.832 396.584 525.473 399.548 523.067L404.779 518.777C412.719 512.044 418.7 503.299 422.094 493.459L426.523 481.375H433.498L437.927 493.459C441.344 503.339 447.369 512.111 455.364 518.847L460.683 523.136C463.647 525.543 471.023 529.902 471.023 534.61L432.923 534.54Z" fill="white" stroke="#263238" stroke-width="1.12548" stroke-linecap="round" stroke-linejoin="round"/>
<path d="M430.062 474.871V463.92C430.062 463.92 436.322 459.212 436.322 452.429C436.322 445.646 431.09 443.048 425.371 445.123" stroke="#263238" stroke-width="1.12548" stroke-linecap="round" stroke-linejoin="round"/>
<path d="M415.33 493.162L427.134 597.209L441.642 490.041C441.642 490.041 466.35 515.325 474.476 519.684C482.601 524.043 489.995 530.042 492.209 541.846C494.424 553.651 506.159 671.874 506.159 671.874L478.818 673.356L481.329 740.297H371.005L377.648 670.549H351.789C351.789 670.549 368.04 542.753 372.469 533.878C376.898 525.002 415.33 493.162 415.33 493.162Z" fill="white" stroke="#263238" stroke-width="1.12548" stroke-linecap="round" stroke-linejoin="round"/>
<path d="M415.328 493.162L429.835 604.131L426.348 608.752L394.02 512.936C394.02 512.936 404.255 496.475 415.328 493.162Z" fill="white" stroke="#263238" stroke-width="1.12548" stroke-linecap="round" stroke-linejoin="round"/>
<path d="M441.642 490.041L421.816 636.512L466.786 511.872C466.786 511.872 441.45 487.582 441.642 490.041Z" fill="white" stroke="#263238" stroke-width="1.12548" stroke-linecap="round" stroke-linejoin="round"/>
<path d="M372.468 533.79C372.468 533.79 351.351 636.442 346.731 660.697C342.11 684.952 339.756 724.185 339.756 724.185L380.157 725.336L391.701 552.186" fill="white"/>
<path d="M372.468 533.79C372.468 533.79 351.351 636.442 346.731 660.697C342.11 684.952 339.756 724.185 339.756 724.185L380.157 725.336L391.701 552.186" stroke="#263238" stroke-width="1.12548" stroke-linecap="round" stroke-linejoin="round"/>
<path d="M489.522 533.79C489.522 533.79 510.638 636.442 515.259 660.697C519.88 684.952 522.234 724.185 522.234 724.185L481.832 725.336L470.289 552.186" fill="white"/>
<path d="M489.522 533.79C489.522 533.79 510.638 636.442 515.259 660.697C519.88 684.952 522.234 724.185 522.234 724.185L481.832 725.336L470.289 552.186" stroke="#263238" stroke-width="1.12548" stroke-linecap="round" stroke-linejoin="round"/>
<path d="M421.762 636.442V741.5" stroke="#263238" stroke-width="1.12548" stroke-linecap="round" stroke-linejoin="round"/>
<path d="M431.178 529.047L423.506 523.816C412.395 515.909 403.735 505.031 398.519 492.43L392.119 477.504H382.006L375.607 492.43C370.391 505.031 361.731 515.909 350.619 523.816L342.93 529.047C340.717 530.68 338.929 532.819 337.715 535.286C336.502 537.753 335.898 540.475 335.955 543.224H438.153C438.21 540.475 437.606 537.753 436.393 535.286C435.179 532.819 433.391 530.68 431.178 529.047ZM389.888 536.946H346.033C346.033 532.238 353.549 527.879 356.496 525.49L361.727 521.183C369.666 514.454 375.642 505.707 379.024 495.865L383.453 483.781H390.428L394.874 495.865C398.257 505.707 404.233 514.454 412.172 521.183L417.49 525.49C420.455 527.879 427.813 532.238 427.813 536.946H389.888Z" fill="white" stroke="#263238" stroke-width="1.12548" stroke-linecap="round" stroke-linejoin="round"/>
<path d="M387.013 477.26V466.309C387.013 466.309 393.273 461.619 393.273 454.836C393.273 448.053 388.042 445.437 382.322 447.53" stroke="#263238" stroke-width="1.12548" stroke-linecap="round" stroke-linejoin="round"/>
<path d="M372.279 495.551L384.101 529.536L398.556 492.43C398.556 492.43 423.265 517.713 431.39 522.073C439.516 526.432 446.892 532.413 449.106 544.235C451.321 556.057 463.143 674.245 463.143 674.245L435.819 675.728L438.278 742.581H327.954L334.598 672.833H308.756C308.756 672.833 325.007 545.002 329.436 536.284C333.865 527.565 372.279 495.551 372.279 495.551Z" fill="#263238" stroke="#263238" stroke-width="1.12548" stroke-linecap="round" stroke-linejoin="round"/>
<path d="M361.205 503.677L367.849 539.876L381.885 516.249L373.027 491.122L361.205 503.677Z" fill="white" stroke="#263238" stroke-width="1.12548" stroke-linecap="round" stroke-linejoin="round"/>
<path d="M398.557 492.43L386.316 516.981L398.871 541.358L409.229 500.73L398.557 492.43Z" fill="white" stroke="#263238" stroke-width="1.12548" stroke-linecap="round" stroke-linejoin="round"/>
<path d="M435.817 675.815L429.906 563.52" stroke="#263238" stroke-width="1.12548" stroke-linecap="round" stroke-linejoin="round"/>
<path d="M334.594 672.868L344.951 563.52" stroke="#263238" stroke-width="1.12548" stroke-linecap="round" stroke-linejoin="round"/>
<path d="M391.194 529.047L383.504 523.816C372.393 515.909 363.733 505.031 358.517 492.43L352.118 477.504H341.969L335.57 492.43C330.354 505.031 321.694 515.909 310.583 523.816L302.91 529.047C300.696 530.678 298.906 532.817 297.692 535.284C296.478 537.751 295.876 540.475 295.936 543.224H398.047C398.118 540.486 397.533 537.77 396.341 535.304C395.149 532.838 393.384 530.693 391.194 529.047ZM349.903 536.946H306.014C306.014 532.238 313.512 527.879 316.476 525.49L321.795 521.183C329.734 514.454 335.71 505.707 339.092 495.865L343.521 483.781H350.496L354.925 495.865C358.307 505.707 364.283 514.454 372.223 521.183L377.541 525.49C380.505 527.879 387.864 532.238 387.864 536.946H349.903Z" fill="white" stroke="#263238" stroke-width="1.12548" stroke-linecap="round" stroke-linejoin="round"/>
<path d="M346.993 477.26V466.309C346.993 466.309 353.253 461.619 353.253 454.836C353.253 448.053 348.022 445.437 342.285 447.53" stroke="#263238" stroke-width="1.12548" stroke-linecap="round" stroke-linejoin="round"/>
<path d="M332.244 495.551L343.996 529.536L358.452 492.43C358.452 492.43 383.16 517.713 391.285 522.073C399.411 526.432 406.804 532.413 409.019 544.235C411.233 556.057 422.969 674.245 422.969 674.245L395.784 675.78L398.26 742.633H287.919L294.58 672.885H268.721C268.721 672.885 284.972 545.002 289.401 536.284C293.83 527.565 332.244 495.551 332.244 495.551Z" fill="#6B6B6B" stroke="#263238" stroke-width="1.12548" stroke-linecap="round" stroke-linejoin="round"/>
<path d="M321.17 503.677L327.813 539.876L341.85 516.249L332.992 491.122L321.17 503.677Z" fill="white" stroke="#263238" stroke-width="1.12548" stroke-linecap="round" stroke-linejoin="round"/>
<path d="M358.52 492.43L346.279 516.981L358.851 541.358L369.192 500.73L358.52 492.43Z" fill="white" stroke="#263238" stroke-width="1.12548" stroke-linecap="round" stroke-linejoin="round"/>
<path d="M395.782 675.815L389.871 563.52" stroke="#263238" stroke-width="1.12548" stroke-linecap="round" stroke-linejoin="round"/>
<path d="M294.578 672.868L304.918 563.52" stroke="#263238" stroke-width="1.12548" stroke-linecap="round" stroke-linejoin="round"/>
<path d="M354.282 529.047L346.609 523.816C335.493 515.914 326.832 505.035 321.622 492.43L315.223 477.504H305.057L298.658 492.43C293.448 505.035 284.787 515.914 273.67 523.816L265.998 529.047C263.786 530.68 261.998 532.819 260.784 535.286C259.57 537.753 258.966 540.475 259.023 543.224H361.152C361.221 540.484 360.633 537.768 359.438 535.301C358.243 532.835 356.475 530.691 354.282 529.047ZM312.991 536.946H269.102C269.102 532.238 276.6 527.879 279.564 525.49L284.882 521.183C292.803 514.445 298.765 505.7 302.145 495.865L306.574 483.781H313.549L317.978 495.865C321.366 505.708 327.348 514.455 335.293 521.183L340.524 525.49C343.505 527.879 350.864 532.238 350.864 536.946H312.991Z" fill="white" stroke="#263238" stroke-width="1.12548" stroke-linecap="round" stroke-linejoin="round"/>
<path d="M310.079 477.26V466.309C310.079 466.309 316.339 461.619 316.339 454.836C316.339 448.053 311.108 445.437 305.389 447.53" stroke="#263238" stroke-width="1.12548" stroke-linecap="round" stroke-linejoin="round"/>
<path d="M280.907 512.517C280.907 512.517 292.538 525.926 307.168 526.153C322.687 526.397 340.926 512.814 340.926 512.814C345.09 516.403 349.626 519.536 354.457 522.16C362.582 526.589 367.936 533.076 372.19 544.322C376.951 556.86 387.43 590.949 387.43 590.949L357.229 592.414L361.362 660.941H260.872L267.673 591.193H238.344C238.344 591.193 248.091 545.002 252.503 536.284C256.914 527.565 280.907 512.517 280.907 512.517Z" fill="#A1A1A1" stroke="#263238" stroke-width="1.12548" stroke-linecap="round" stroke-linejoin="round"/>
<path d="M267.672 591.123L269.206 554.506" stroke="#263238" stroke-width="1.12548" stroke-linecap="round" stroke-linejoin="round"/>
<path d="M357.211 592.414L354.84 556.859" stroke="#263238" stroke-width="1.12548" stroke-linecap="round" stroke-linejoin="round"/>
<path d="M326.66 529.047L318.988 523.816C307.871 515.914 299.21 505.035 294.001 492.43L287.602 477.504H277.436L271.036 492.43C265.827 505.035 257.166 515.914 246.049 523.816L238.377 529.047C236.165 530.68 234.376 532.819 233.163 535.286C231.949 537.753 231.345 540.475 231.402 543.224H333.531C333.6 540.484 333.012 537.768 331.817 535.301C330.622 532.835 328.854 530.691 326.66 529.047ZM285.37 536.946H241.481C241.481 532.238 248.979 527.879 251.943 525.49L257.174 521.183C265.118 514.455 271.1 505.708 274.489 495.865L278.918 483.781H285.893L290.322 495.865C293.711 505.704 299.686 514.449 307.619 521.183L312.938 525.49C315.902 527.879 323.278 532.238 323.278 536.946H285.37Z" fill="white" stroke="#263238" stroke-width="1.12548" stroke-linecap="round" stroke-linejoin="round"/>
<path d="M282.458 477.26V466.309C282.458 466.309 288.718 461.619 288.718 454.836C288.718 448.053 283.487 445.437 277.768 447.53" stroke="#263238" stroke-width="1.12548" stroke-linecap="round" stroke-linejoin="round"/>
<path d="M253.321 512.517C253.321 512.517 264.952 525.926 279.581 526.153C295.1 526.397 313.339 512.814 313.339 512.814C317.498 516.402 322.028 519.535 326.853 522.16C334.979 526.589 340.314 533.076 344.587 544.322C349.347 556.86 359.826 590.949 359.826 590.949L329.626 592.414L333.758 660.941H233.251L240.052 591.193H210.723C210.723 591.193 220.435 545.125 224.864 536.267C229.293 527.409 253.321 512.517 253.321 512.517Z" fill="white" stroke="#263238" stroke-width="1.12548" stroke-linecap="round" stroke-linejoin="round"/>
<path d="M240.051 591.123L241.585 554.506" stroke="#263238" stroke-width="1.12548" stroke-linecap="round" stroke-linejoin="round"/>
<path d="M329.59 592.414L327.219 556.859" stroke="#263238" stroke-width="1.12548" stroke-linecap="round" stroke-linejoin="round"/>
<path d="M356.2 874.754V471.505C356.2 469.416 355.788 467.346 354.988 465.416C354.188 463.485 353.015 461.731 351.536 460.254C350.058 458.778 348.303 457.607 346.371 456.808C344.44 456.01 342.37 455.601 340.28 455.603H79.9631C75.7455 455.603 71.7006 457.278 68.7183 460.261C65.736 463.243 64.0605 467.288 64.0605 471.505V874.126" stroke="#263238" stroke-width="4.50194" stroke-linejoin="round"/>
<path d="M47.759 529.047L55.4313 523.816C66.5481 515.914 75.2091 505.035 80.4185 492.43L86.8179 477.504H96.9837L103.366 492.43C108.575 505.035 117.236 515.914 128.353 523.816L136.025 529.047C138.237 530.68 140.026 532.819 141.239 535.286C142.453 537.753 143.057 540.475 143 543.224H40.8365C40.7737 540.48 41.3694 537.76 42.5738 535.294C43.7783 532.827 45.5563 530.685 47.759 529.047ZM89.0499 536.946H133.009C133.009 532.238 125.493 527.879 122.546 525.49L117.315 521.183C109.331 514.467 103.306 505.72 99.8782 495.865L95.4492 483.781H88.4744L84.0454 495.865C80.6568 505.708 74.6749 514.455 66.7305 521.183L61.4994 525.49C58.5177 527.879 51.1593 532.238 51.1593 536.946H89.0499Z" fill="white" stroke="#263238" stroke-width="1.12548" stroke-linecap="round" stroke-linejoin="round"/>
<path d="M91.9591 477.26V466.309C91.9591 466.309 85.6992 461.619 85.6992 454.836C85.6992 448.053 90.9303 445.437 96.6497 447.53" stroke="#263238" stroke-width="1.12548" stroke-linecap="round" stroke-linejoin="round"/>
<path d="M121.132 512.517C121.132 512.517 109.501 525.926 94.8718 526.153C79.3528 526.397 61.1137 512.814 61.1137 512.814C56.9444 516.404 52.4022 519.537 47.5652 522.16C39.4395 526.589 34.0864 533.076 29.8317 544.322C25.0714 556.86 14.5918 590.949 14.5918 590.949L44.7927 592.414L40.6601 660.941H141.167L134.367 591.193H163.696C163.696 591.193 153.931 545.002 149.537 536.284C145.143 527.565 121.132 512.517 121.132 512.517Z" fill="white" stroke="#263238" stroke-width="1.12548" stroke-linecap="round" stroke-linejoin="round"/>
<path d="M134.366 591.123L132.832 554.506" stroke="#263238" stroke-width="1.12548" stroke-linecap="round" stroke-linejoin="round"/>
<path d="M44.8281 592.414L47.1996 556.859" stroke="#263238" stroke-width="1.12548" stroke-linecap="round" stroke-linejoin="round"/>
<path d="M63.3997 529.047L71.0719 523.816C82.1887 515.914 90.8497 505.035 96.0592 492.43L102.459 477.504H112.624L119.059 492.43C124.268 505.035 132.929 515.914 144.046 523.816L151.718 529.047C153.93 530.68 155.719 532.819 156.932 535.286C158.146 537.753 158.75 540.475 158.693 543.224H56.4772C56.4143 540.48 57.01 537.76 58.2145 535.294C59.4189 532.827 61.197 530.685 63.3997 529.047ZM104.69 536.946H148.579C148.579 532.238 141.064 527.879 138.117 525.49L132.886 521.183C124.946 514.451 118.965 505.706 115.571 495.865L111.142 483.781H104.167L99.7384 495.865C96.3497 505.708 90.3679 514.455 82.4234 521.183L77.1923 525.49C74.2106 527.879 66.8522 532.238 66.8522 536.946H104.69Z" fill="white" stroke="#263238" stroke-width="1.12548" stroke-linecap="round" stroke-linejoin="round"/>
<path d="M107.602 477.26V466.309C107.602 466.309 101.342 461.619 101.342 454.836C101.342 448.053 106.573 445.437 112.292 447.53" stroke="#263238" stroke-width="1.12548" stroke-linecap="round" stroke-linejoin="round"/>
<path d="M136.773 512.517C136.773 512.517 125.142 525.926 110.513 526.153C94.9937 526.397 76.7546 512.814 76.7546 512.814C72.6017 516.401 68.0773 519.534 63.2584 522.16C55.1153 526.589 49.7796 533.076 45.525 544.322C40.7647 556.86 30.2676 590.949 30.2676 590.949L60.4859 592.414L56.2836 660.941H156.756L149.955 591.193H179.284C179.284 591.193 169.624 545.002 165.178 536.284C160.731 527.565 136.773 512.517 136.773 512.517Z" fill="#6B6B6B" stroke="#263238" stroke-width="1.12548" stroke-linecap="round" stroke-linejoin="round"/>
<path d="M150.009 591.123L148.475 554.506" stroke="#263238" stroke-width="1.12548" stroke-linecap="round" stroke-linejoin="round"/>
<path d="M60.4688 592.414L62.8402 556.859" stroke="#263238" stroke-width="1.12548" stroke-linecap="round" stroke-linejoin="round"/>
<path d="M149.815 493.162L122.596 494.47V611.054H154.924L149.815 493.162Z" fill="white" stroke="#263238" stroke-width="1.12548" stroke-linecap="round" stroke-linejoin="round"/>
<path d="M90.8782 526.659L98.5505 521.428C109.672 513.526 118.339 502.647 123.555 490.041L129.937 475.115H140.103L146.502 490.041C151.712 502.646 160.373 513.525 171.489 521.428L179.162 526.659C181.374 528.291 183.162 530.43 184.376 532.897C185.59 535.364 186.193 538.086 186.137 540.835H83.9557C83.8928 538.091 84.4885 535.372 85.693 532.905C86.8974 530.438 88.6755 528.297 90.8782 526.659ZM132.169 534.54H176.058C176.058 529.832 168.56 525.473 165.596 523.067L160.365 518.777C152.425 512.044 146.445 503.299 143.05 493.459L138.621 481.375H131.646L127.217 493.459C123.8 503.339 117.775 512.111 109.78 518.847L104.462 523.136C101.497 525.543 94.1215 529.902 94.1215 534.61L132.169 534.54Z" fill="white" stroke="#263238" stroke-width="1.12548" stroke-linecap="round" stroke-linejoin="round"/>
<path d="M135.082 474.871V463.92C135.082 463.92 128.822 459.212 128.822 452.429C128.822 445.646 134.053 443.048 139.773 445.123" stroke="#263238" stroke-width="1.12548" stroke-linecap="round" stroke-linejoin="round"/>
<path d="M149.816 493.162L138.011 597.209L123.556 490.041C123.556 490.041 98.8477 515.325 90.7221 519.684C82.5965 524.043 75.2032 530.042 72.9887 541.846C70.7742 553.651 59.0391 671.874 59.0391 671.874L86.3803 673.356L83.817 740.297H194.141L187.497 670.549H213.357C213.357 670.549 197.105 542.753 192.676 533.878C188.247 525.002 149.816 493.162 149.816 493.162Z" fill="white" stroke="#263238" stroke-width="1.12548" stroke-linecap="round" stroke-linejoin="round"/>
<path d="M149.816 493.162L135.309 604.131L138.796 608.752L171.124 512.936C171.124 512.936 160.906 496.475 149.816 493.162Z" fill="white" stroke="#263238" stroke-width="1.12548" stroke-linecap="round" stroke-linejoin="round"/>
<path d="M123.556 490.041L143.382 636.512L98.3594 511.872C98.3594 511.872 123.695 487.582 123.556 490.041Z" fill="white" stroke="#263238" stroke-width="1.12548" stroke-linecap="round" stroke-linejoin="round"/>
<path d="M192.676 533.79C192.676 533.79 213.793 636.442 218.413 660.697C223.034 684.952 225.388 724.185 225.388 724.185L184.987 725.336L173.443 552.186" fill="white"/>
<path d="M192.676 533.79C192.676 533.79 213.793 636.442 218.413 660.697C223.034 684.952 225.388 724.185 225.388 724.185L184.987 725.336L173.443 552.186" stroke="#263238" stroke-width="1.12548" stroke-linecap="round" stroke-linejoin="round"/>
<path d="M75.6239 533.79C75.6239 533.79 54.5426 636.442 49.8869 660.697C45.2312 684.952 42.9121 724.185 42.9121 724.185L83.3136 725.336L94.8569 552.186" fill="white"/>
<path d="M75.6239 533.79C75.6239 533.79 54.5426 636.442 49.8869 660.697C45.2312 684.952 42.9121 724.185 42.9121 724.185L83.3136 725.336L94.8569 552.186" stroke="#263238" stroke-width="1.12548" stroke-linecap="round" stroke-linejoin="round"/>
<path d="M143.381 636.442V741.5" stroke="#263238" stroke-width="1.12548" stroke-linecap="round" stroke-linejoin="round"/>
<path d="M133.929 529.047L141.601 523.816C152.713 515.909 161.372 505.031 166.588 492.43L172.988 477.504H183.136L189.536 492.43C194.751 505.036 203.418 515.915 214.54 523.816L222.213 529.047C224.425 530.68 226.213 532.819 227.427 535.286C228.64 537.753 229.244 540.475 229.187 543.224H127.006C126.944 540.48 127.539 537.76 128.744 535.294C129.948 532.827 131.726 530.685 133.929 529.047ZM175.22 536.946H219.109C219.109 532.238 211.593 527.879 208.647 525.49L203.328 521.183C195.395 514.449 189.42 505.704 186.031 495.865L181.602 483.781H174.627L170.18 495.865C166.798 505.707 160.822 514.454 152.883 521.183L147.652 525.49C144.688 527.879 137.329 532.238 137.329 536.946H175.22Z" fill="white" stroke="#263238" stroke-width="1.12548" stroke-linecap="round" stroke-linejoin="round"/>
<path d="M178.133 477.26V466.309C178.133 466.309 171.873 461.619 171.873 454.836C171.873 448.053 177.104 445.437 182.823 447.53" stroke="#263238" stroke-width="1.12548" stroke-linecap="round" stroke-linejoin="round"/>
<path d="M192.869 495.551L181.047 529.536L166.591 492.43C166.591 492.43 141.883 517.713 133.757 522.073C125.632 526.432 118.256 532.413 116.041 544.235C113.827 556.057 102.092 674.245 102.092 674.245L129.416 675.728L126.957 742.581H237.281L230.637 672.833H256.497C256.497 672.833 240.141 545.002 235.712 536.284C231.283 527.565 192.869 495.551 192.869 495.551Z" fill="#263238" stroke="#263238" stroke-width="1.12548" stroke-linecap="round" stroke-linejoin="round"/>
<path d="M203.94 503.677L197.297 539.876L183.26 516.249L192.135 491.122L203.94 503.677Z" fill="white" stroke="#263238" stroke-width="1.12548" stroke-linecap="round" stroke-linejoin="round"/>
<path d="M166.591 492.43L178.832 516.981L166.278 541.358L155.92 500.73L166.591 492.43Z" fill="white" stroke="#263238" stroke-width="1.12548" stroke-linecap="round" stroke-linejoin="round"/>
<path d="M129.33 675.815L135.241 563.52" stroke="#263238" stroke-width="1.12548" stroke-linecap="round" stroke-linejoin="round"/>
<path d="M230.547 672.868L220.189 563.52" stroke="#263238" stroke-width="1.12548" stroke-linecap="round" stroke-linejoin="round"/>
<path d="M173.947 529.047L181.636 523.816C192.748 515.909 201.407 505.031 206.623 492.43L213.023 477.504H223.171L229.571 492.43C234.787 505.031 243.446 515.909 254.558 523.816L262.23 529.047C264.445 530.678 266.234 532.817 267.448 535.284C268.662 537.751 269.265 540.475 269.205 543.224H167.024C166.961 540.48 167.557 537.76 168.761 535.294C169.966 532.827 171.744 530.685 173.947 529.047ZM215.237 536.946H259.126C259.126 532.238 251.628 527.879 248.664 525.49L243.346 521.183C235.406 514.454 229.431 505.707 226.048 495.865L221.619 483.781H214.645L210.216 495.865C206.833 505.707 200.857 514.454 192.918 521.183L187.687 525.49C184.723 527.879 177.364 532.238 177.364 536.946H215.237Z" fill="white" stroke="#263238" stroke-width="1.12548" stroke-linecap="round" stroke-linejoin="round"/>
<path d="M218.15 477.26V466.309C218.15 466.309 211.891 461.619 211.891 454.836C211.891 448.053 217.122 445.437 222.858 447.53" stroke="#263238" stroke-width="1.12548" stroke-linecap="round" stroke-linejoin="round"/>
<path d="M232.902 495.551L221.08 529.536L206.624 492.43C206.624 492.43 181.916 517.713 173.79 522.073C165.665 526.432 158.272 532.413 156.057 544.235C153.843 556.057 142.107 674.245 142.107 674.245L169.449 675.728L166.973 742.581H277.314L270.653 672.833H296.512C296.512 672.833 280.174 545.002 275.745 536.284C271.316 527.565 232.902 495.551 232.902 495.551Z" fill="#6B6B6B" stroke="#263238" stroke-width="1.12548" stroke-linecap="round" stroke-linejoin="round"/>
<path d="M243.977 503.677L237.334 539.876L223.297 516.249L232.155 491.122L243.977 503.677Z" fill="white" stroke="#263238" stroke-width="1.12548" stroke-linecap="round" stroke-linejoin="round"/>
<path d="M206.625 492.43L218.865 516.981L206.293 541.358L195.953 500.73L206.625 492.43Z" fill="white" stroke="#263238" stroke-width="1.12548" stroke-linecap="round" stroke-linejoin="round"/>
<path d="M169.361 675.815L175.272 563.52" stroke="#263238" stroke-width="1.12548" stroke-linecap="round" stroke-linejoin="round"/>
<path d="M270.567 672.868L260.227 563.52" stroke="#263238" stroke-width="1.12548" stroke-linecap="round" stroke-linejoin="round"/>
<path d="M210.861 529.047L218.533 523.816C229.65 515.914 238.311 505.035 243.52 492.43L249.92 477.504H260.085L266.485 492.43C271.694 505.035 280.355 515.914 291.472 523.816L299.144 529.047C301.356 530.68 303.145 532.819 304.358 535.286C305.572 537.753 306.176 540.475 306.119 543.224H203.938C203.875 540.48 204.471 537.76 205.675 535.294C206.88 532.827 208.658 530.685 210.861 529.047ZM252.151 536.946H296.04C296.04 532.238 288.542 527.879 285.578 525.49L280.26 521.183C272.326 514.449 266.352 505.704 262.962 495.865L258.551 483.781H251.576L247.147 495.865C243.758 505.708 237.776 514.455 229.832 521.183L224.601 525.49C221.619 527.879 214.261 532.238 214.261 536.946H252.151Z" fill="white" stroke="#263238" stroke-width="1.12548" stroke-linecap="round" stroke-linejoin="round"/>
<path d="M255.067 477.26V466.309C255.067 466.309 248.807 461.619 248.807 454.836C248.807 448.053 254.038 445.437 259.757 447.53" stroke="#263238" stroke-width="1.12548" stroke-linecap="round" stroke-linejoin="round"/>
<path d="M284.238 512.517C284.238 512.517 272.607 525.926 257.978 526.153C242.459 526.397 224.219 512.814 224.219 512.814C220.061 516.402 215.531 519.535 210.706 522.16C202.58 526.589 197.227 533.076 192.972 544.322C188.212 556.86 177.732 590.949 177.732 590.949L207.933 592.414L203.801 660.941H304.273L297.472 591.193H326.801C326.801 591.193 317.089 545.002 312.608 536.284C308.126 527.565 284.238 512.517 284.238 512.517Z" fill="#A1A1A1" stroke="#263238" stroke-width="1.12548" stroke-linecap="round" stroke-linejoin="round"/>
<path d="M297.472 591.123L295.938 554.506" stroke="#263238" stroke-width="1.12548" stroke-linecap="round" stroke-linejoin="round"/>
<path d="M207.934 592.414L210.305 556.859" stroke="#263238" stroke-width="1.12548" stroke-linecap="round" stroke-linejoin="round"/>
<path d="M238.484 529.047L246.156 523.816C257.273 515.914 265.934 505.035 271.143 492.43L277.543 477.504H287.708L294.108 492.43C299.317 505.035 307.978 515.914 319.095 523.816L326.767 529.047C328.98 530.68 330.768 532.819 331.981 535.286C333.195 537.753 333.799 540.475 333.742 543.224H231.561C231.498 540.48 232.094 537.76 233.298 535.294C234.503 532.827 236.281 530.685 238.484 529.047ZM279.774 536.946H323.663C323.663 532.238 316.165 527.879 313.201 525.49L307.97 521.183C300.026 514.455 294.044 505.708 290.655 495.865L286.226 483.781H279.251L274.822 495.865C271.433 505.704 265.458 514.449 257.525 521.183L252.207 525.49C249.242 527.879 241.866 532.238 241.866 536.946H279.774Z" fill="white" stroke="#263238" stroke-width="1.12548" stroke-linecap="round" stroke-linejoin="round"/>
<path d="M282.686 477.26V466.309C282.686 466.309 276.426 461.619 276.426 454.836C276.426 448.053 281.657 445.437 287.376 447.53" stroke="#263238" stroke-width="1.12548" stroke-linecap="round" stroke-linejoin="round"/>
<path d="M311.857 512.517C311.857 512.517 300.226 525.926 285.597 526.153C270.078 526.397 251.839 512.814 251.839 512.814C247.68 516.402 243.15 519.535 238.325 522.16C230.199 526.589 224.864 533.076 220.591 544.322C215.849 556.86 205.352 590.949 205.352 590.949L235.552 592.414L231.42 660.941H331.892L325.091 591.193H354.455C354.455 591.193 344.708 545.002 340.279 536.284C335.85 527.565 311.857 512.517 311.857 512.517Z" fill="white" stroke="#263238" stroke-width="1.12548" stroke-linecap="round" stroke-linejoin="round"/>
<path d="M325.091 591.123L323.557 554.506" stroke="#263238" stroke-width="1.12548" stroke-linecap="round" stroke-linejoin="round"/>
<path d="M235.553 592.414L237.924 556.859" stroke="#263238" stroke-width="1.12548" stroke-linecap="round" stroke-linejoin="round"/>
<path d="M465.134 539.667C465.134 539.667 461.559 606.05 463.094 623.365C464.628 640.679 469.737 667.794 470.243 674.943C470.749 682.092 476.381 700.977 479.432 713.305C482.484 725.633 503.949 788.371 508.535 800.106C513.12 811.841 513.452 846.349 513.452 846.349C513.452 846.349 493.016 862.687 486.39 866.262C479.764 869.837 476.677 868.302 477.671 872.906C478.665 877.509 513.923 873.411 522.101 873.411C530.279 873.411 542.519 874.946 543.025 869.331C543.531 863.716 536.905 845.843 535.37 837.665C533.836 829.487 533.522 791.422 531.987 768.44C530.453 745.458 530.47 729.137 522.798 709.73C515.126 690.323 507.488 667.341 507.488 667.341L527.942 555.465L465.134 539.667Z" fill="white" stroke="#263238" stroke-width="1.12548" stroke-linecap="round" stroke-linejoin="round"/>
<path d="M512.022 830.673C511.063 822.582 507.052 806.662 505.344 798.484C502.745 786.139 482.501 725.545 479.432 713.287C476.363 701.029 470.714 682.127 470.243 674.926C469.772 667.724 464.628 640.714 463.094 623.347C461.559 605.98 465.134 539.649 465.134 539.649L527.907 555.482L507.488 667.306C507.488 667.306 515.143 690.288 522.798 709.695C530.453 729.103 530.47 745.441 531.987 768.406C533.173 786.156 533.138 815.904 534.324 828.912C527.168 831.423 519.483 832.03 512.022 830.673Z" fill="#263238" stroke="#263238" stroke-width="1.12548" stroke-linecap="round" stroke-linejoin="round"/>
<path d="M477.703 872.818C476.674 868.215 479.743 869.749 486.421 866.175C491.495 863.454 504.59 853.271 510.501 848.616C512.345 849.135 513.945 850.29 515.018 851.876C516.094 853.636 516.949 855.522 517.564 857.491L539.987 854.23C541.731 860.473 543.353 866.436 543.091 869.244C542.586 874.858 530.327 873.324 522.167 873.324C514.006 873.324 478.714 877.474 477.703 872.818Z" fill="#666666" stroke="#263238" stroke-width="1.12548" stroke-linecap="round" stroke-linejoin="round"/>
<path d="M574.919 547.845C574.919 547.845 571.344 580.016 559.609 609.118C547.874 638.221 536.522 679.913 536.522 679.913C536.522 679.913 557.638 704.237 562.242 726.19C566.845 748.144 569.217 788.353 569.81 793.445C570.402 798.537 574.919 815.921 582.015 823.088C589.112 830.255 594.779 831.806 591.728 837.386C588.676 842.966 571.815 864.448 568.746 868.023C565.677 871.598 552.913 874.143 547.298 874.143C541.684 874.143 545.258 874.143 547.804 865.425C550.35 856.706 553.419 832.748 553.419 825.093C553.419 817.438 544.229 788.842 534.029 771.474C523.828 754.107 508.484 707.132 503.898 695.902C499.312 684.673 493.174 675.484 493.174 668.335C493.174 661.185 498.789 592.762 499.817 580.504C500.846 568.246 502.363 554.471 502.363 554.471L576.401 541.184L574.919 547.845Z" fill="white" stroke="#263238" stroke-width="1.12548" stroke-linecap="round" stroke-linejoin="round"/>
<path d="M547.349 874.126C541.735 874.126 545.309 874.126 547.855 865.407C550.122 857.718 552.79 838.031 553.365 828.301C554.9 826.976 560.671 822.286 564.194 824.047C566.621 825.262 568.725 827.037 570.331 829.226L579.66 820.176C580.385 821.214 581.189 822.193 582.067 823.105C589.216 830.254 594.83 831.824 591.779 837.404C588.727 842.983 571.866 864.466 568.797 868.04C565.728 871.615 552.964 874.126 547.349 874.126Z" fill="#666666" stroke="#263238" stroke-width="1.12548" stroke-linecap="round" stroke-linejoin="round"/>
<path d="M499.866 580.522C500.878 568.316 502.412 554.488 502.412 554.488L581.559 540.399L583.302 552.605C583.302 552.605 581.995 574.855 570.26 603.975C558.524 633.094 536.536 679.93 536.536 679.93C536.536 679.93 557.653 704.255 562.256 726.208C566.859 748.161 569.231 788.371 569.824 793.462C570.495 797.87 571.586 802.202 573.084 806.401C566.449 810.409 559.002 812.887 551.288 813.655C547.958 801.449 541.279 783.733 534.095 771.509C523.877 754.072 508.55 707.167 503.964 695.937C499.378 684.708 493.24 675.519 493.24 668.369C493.24 661.22 498.838 592.78 499.866 580.522Z" fill="#263238" stroke="#263238" stroke-width="1.12548" stroke-linecap="round" stroke-linejoin="round"/>
<path d="M523.269 750.167C514.394 727.934 500.863 703.087 496.399 686.086C490.226 662.668 499.886 580.522 499.886 580.522" stroke="#7D7D7D" stroke-width="1.12548" stroke-linecap="round" stroke-linejoin="round"/>
<path d="M528.831 764.151L526.041 757.176" stroke="#7D7D7D" stroke-width="1.12548" stroke-linecap="round" stroke-linejoin="round"/>
<path d="M380.39 361.129C380.39 361.129 367.522 354.538 364.348 353.649C361.175 352.76 359.344 355.672 360.582 356.508C361.82 357.345 363.842 358.897 363.842 358.897C363.842 358.897 358.001 358.723 359.431 360.641L362.29 364.39C362.29 364.39 357.059 365.384 358.402 367.703C359.634 369.335 361.367 370.518 363.337 371.068C363.337 371.068 358.018 372.516 360.372 374.643C362.726 376.77 369.719 376.387 369.719 376.387C371.607 380.026 374.189 383.261 377.321 385.907C380.569 388.288 384.415 389.718 388.429 390.04L395.647 397.485L405.308 385.977L380.39 361.129Z" fill="white" stroke="#263238" stroke-width="1.12548" stroke-linecap="round" stroke-linejoin="round"/>
<path d="M272.978 351.155L282.516 346.587C296.36 339.755 307.999 329.161 316.099 316.02L325.969 300.448L327.05 300.623L336.274 302.105L337.338 302.279L341.819 320.17C345.403 335.197 353.151 348.909 364.173 359.734L371.898 367.145C374.075 369.377 375.685 372.098 376.595 375.08C377.506 378.062 377.688 381.218 377.129 384.286L324.539 375.811L315.315 374.329L262.725 365.855C263.131 362.762 264.274 359.813 266.058 357.254C267.843 354.696 270.216 352.604 272.978 351.155ZM317.791 367.441L324.19 368.47L366.963 375.445C367.8 370.214 360.18 363.937 357.285 360.711L352.054 354.939C344.378 345.964 339.263 335.085 337.25 323.448L334.46 309.115L333.711 309.01L327.329 307.981L326.561 307.859L319.43 320.588C313.855 331.003 305.579 339.724 295.471 345.837L288.758 349.691C284.992 351.835 275.959 355.392 275.105 360.658L317.791 367.441Z" fill="white" stroke="#263238" stroke-width="1.12548" stroke-linecap="round" stroke-linejoin="round"/>
<path d="M331.792 301.111L333.78 288.905C333.78 288.905 327.607 282.523 328.828 274.956C330.048 267.388 336.378 265.365 342.429 268.748" stroke="#263238" stroke-width="1.12548" stroke-linecap="round" stroke-linejoin="round"/>
<path d="M258.26 421.601L238.277 416.753C238.277 416.753 242.584 378.2 250.169 365.018C256.97 353.195 264.119 346.883 274.023 343.396C279.905 341.33 285.547 338.635 290.85 335.357C290.85 335.357 308.828 353.876 326.265 356.404C342.69 358.775 358.139 345.854 358.139 345.854C358.139 345.854 382.325 366.779 385.69 377.503C389.055 388.226 391.636 441.584 391.636 441.584L358.785 436.353L368.148 515.778L367.276 515.621L368.148 517.818C368.148 517.818 357.564 512.587 337.075 514.592C316.587 516.598 293.57 520.207 283.84 517.661C274.11 515.116 243.979 503.712 243.979 503.712L258.26 421.601Z" fill="#6AB153" stroke="#263238" stroke-width="1.12548" stroke-linecap="round" stroke-linejoin="round"/>
<path d="M358.785 436.3L356.535 418.811" stroke="#263238" stroke-width="1.12548" stroke-linecap="round" stroke-linejoin="round"/>
<path d="M258.262 421.601L266.3 379.403" stroke="#263238" stroke-width="1.12548" stroke-linecap="round" stroke-linejoin="round"/>
<path d="M288.968 342.018C287.606 350.671 286.918 359.415 286.91 368.174" stroke="#263238" stroke-width="1.12548" stroke-linecap="round" stroke-linejoin="round"/>
<path d="M284.872 343.047C283.397 347.889 282.369 352.856 281.803 357.886" stroke="#263238" stroke-width="1.12548" stroke-linecap="round" stroke-linejoin="round"/>
<path d="M342.496 401.723C342.88 403.344 343.298 404.948 343.734 406.518" stroke="#263238" stroke-width="1.12548" stroke-linecap="round" stroke-linejoin="round"/>
<path d="M335.541 360.955C335.541 360.955 337.285 377.45 340.772 394.591" stroke="#263238" stroke-width="1.12548" stroke-linecap="round" stroke-linejoin="round"/>
<path d="M341.174 357.38C343.237 363.083 344.949 368.906 346.3 374.817" stroke="#263238" stroke-width="1.12548" stroke-linecap="round" stroke-linejoin="round"/>
<path d="M275.889 495.76L289.681 393.423" stroke="#263238" stroke-width="1.12548" stroke-linecap="round" stroke-linejoin="round"/>
<path d="M273.779 511.297L274.599 505.316" stroke="#263238" stroke-width="1.12548" stroke-linecap="round" stroke-linejoin="round"/>
<path d="M309.333 356.003L306.525 406.518" stroke="#263238" stroke-width="1.12548" stroke-linecap="round" stroke-linejoin="round"/>
<path d="M405.028 382.838C405.028 382.838 395.595 371.609 391.863 369.83C388.132 368.052 376.065 365.698 371.549 363.03C367.033 360.362 365.777 361.775 368.358 365.471C370.939 369.168 380.076 372.847 380.076 372.847C380.076 372.847 383.982 381.688 388.498 384.355L398.786 390.441L405.028 382.838Z" fill="white" stroke="#263238" stroke-width="1.12548" stroke-linecap="round" stroke-linejoin="round"/>
<path d="M497.025 382.054C497.025 382.054 479.03 382.054 476.379 386.814C473.729 391.574 462.098 420.154 457.338 428.175C452.578 436.196 452.578 438.218 452.578 438.218L404.434 379.351L387.59 393.702C387.59 393.702 443.667 486.815 447.904 488.402C452.142 489.989 478.053 468.82 481.227 467.233C484.4 465.647 501.872 389.464 501.872 389.464C501.872 389.464 506.005 385.227 497.025 382.054Z" fill="#666666" stroke="#263238" stroke-width="1.12548" stroke-linecap="round" stroke-linejoin="round"/>
<path d="M494.897 389.988L554.183 374.643C554.183 374.643 563.181 424.373 563.181 446.135C563.181 467.896 578.264 550.094 578.264 550.094C578.264 550.094 533.555 563.59 508.69 563.59C483.825 563.59 467.957 554.593 467.957 554.593C467.957 554.593 480.163 512.744 480.651 490.076C481.139 467.408 478.001 436.632 480.651 418.584C482.254 407.785 487.242 397.772 494.897 389.988Z" fill="white" stroke="#263238" stroke-width="1.12548" stroke-linecap="round" stroke-linejoin="round"/>
<path d="M489.127 462.334L507.645 488.263" stroke="#263238" stroke-width="1.12548" stroke-linecap="round" stroke-linejoin="round"/>
<path d="M508.344 497.975L510.889 501.689" stroke="#263238" stroke-width="1.12548" stroke-linecap="round" stroke-linejoin="round"/>
<path d="M494.688 478.079L505.289 493.546" stroke="#263238" stroke-width="1.12548" stroke-linecap="round" stroke-linejoin="round"/>
<path d="M479.031 403.222C479.031 403.222 477.444 409.046 475.334 418.567C473.224 428.087 473.747 434.434 474.794 457.19C475.84 479.945 474.794 486.275 467.383 503.747C459.972 521.218 439.641 566.031 439.641 566.031L458.159 582.963C458.159 582.963 474.794 540.242 481.141 513.79C487.488 487.338 486.982 450.843 489.075 432.848C491.167 414.853 508.656 386.326 508.656 386.326L512.353 379.979C507.373 381.423 502.21 382.133 497.026 382.089C492.387 381.947 487.753 382.481 483.268 383.675" fill="#666666"/>
<path d="M479.031 403.222C479.031 403.222 477.444 409.046 475.334 418.567C473.224 428.087 473.747 434.434 474.794 457.19C475.84 479.945 474.794 486.275 467.383 503.747C459.972 521.218 439.641 566.032 439.641 566.032L458.159 582.963C458.159 582.963 474.794 540.242 481.141 513.79C487.488 487.338 486.982 450.843 489.075 432.848C491.167 414.853 508.656 386.326 508.656 386.326L512.353 379.979C507.373 381.423 502.21 382.133 497.026 382.089C492.387 381.947 487.753 382.481 483.268 383.675" stroke="#263238" stroke-width="1.12548" stroke-linecap="round" stroke-linejoin="round"/>
<path d="M549.39 372.533C549.39 372.533 522.415 419.613 517.132 434.958C511.848 450.302 515.545 459.369 516.591 469.832C517.637 480.294 532.72 590.81 532.72 590.81C532.72 590.81 567.594 580.225 581.928 574.924C596.261 569.624 600.969 563.817 600.969 563.817C600.969 563.817 575.127 477.103 575.127 474.975C575.127 472.848 597.534 376.23 593.837 374.12C590.14 372.01 549.39 372.533 549.39 372.533Z" fill="#666666" stroke="#263238" stroke-width="1.12548" stroke-linecap="round" stroke-linejoin="round"/>
<path d="M492.614 368.889C492.614 368.889 493.346 386.064 490.05 394.12C488.516 398.403 486.016 402.275 482.744 405.437C482.744 405.437 497.356 398.131 502.849 392.289C507.011 387.431 510.685 382.174 513.817 376.596L503.948 359.42L492.614 368.889Z" fill="#263238" stroke="#263238" stroke-width="1.12548" stroke-linecap="round" stroke-linejoin="round"/>
<path d="M471.724 294.677C469.837 300.707 468.524 306.901 467.8 313.178C467.295 320.675 469.997 322.262 469.544 326.761C469.091 331.26 462.36 339.176 463.354 342.681C464.348 346.186 470.329 348.174 470.329 348.174C470.329 348.174 474.845 365.611 476.344 370.179C477.844 374.748 484.331 373.178 490.835 371.173C495.588 369.617 500.246 367.783 504.784 365.68L510.783 380.17L544.785 363.675L530.295 306.133C530.295 306.133 510.294 290.631 497.792 290.631L471.724 294.677Z" fill="white" stroke="#263238" stroke-width="1.12548" stroke-linecap="round" stroke-linejoin="round"/>
<path d="M504.73 365.68L512.943 360.223L508.061 370.458L504.73 365.68Z" fill="#263238" stroke="#263238" stroke-width="1.12548" stroke-linecap="round" stroke-linejoin="round"/>
<path d="M474.338 328.975C474.338 331.19 475.157 332.986 476.169 332.986C477.18 332.986 477.912 331.242 477.912 328.975C477.912 326.709 477.11 324.948 476.169 324.948C475.227 324.948 474.338 326.744 474.338 328.975Z" fill="#263238"/>
<path d="M482.376 320.92C482.376 320.92 477.616 312.515 471.408 317.641" stroke="#263238" stroke-width="1.12548" stroke-linecap="round" stroke-linejoin="round"/>
<path d="M487.119 349.063C487.119 349.063 482.185 355.375 476.535 352.358" stroke="#263238" stroke-width="1.12548" stroke-linecap="round" stroke-linejoin="round"/>
<path d="M526.597 389.639C526.597 389.639 525.603 390.528 518.925 392.934C509.561 396.282 506.492 394.033 506.492 394.033C504.92 387.503 503.681 380.897 502.778 374.242C502.412 368.767 503.964 369.638 513.816 368.069C524.819 366.325 541.471 359.56 544.034 359.56C546.598 359.56 548.167 359.298 548.167 362.594C548.167 365.889 551.463 377.938 551.463 377.938C543.595 382.676 535.263 386.596 526.597 389.639Z" fill="white" stroke="#263238" stroke-width="1.12548" stroke-linecap="round" stroke-linejoin="round"/>
<path d="M517.742 328.173C517.742 328.173 511.238 328.173 508.239 326.168C506.226 324.505 504.817 322.225 504.228 319.682C504.228 319.682 482.728 314.171 473.243 302.245C463.757 290.318 457.235 289.237 461.734 283.744C466.233 278.251 497.236 269.236 507.245 265.243C517.254 261.25 532.319 267.754 546.269 279.175C560.218 290.597 559.783 292.166 561.77 306.674C563.758 321.181 577.272 371.679 577.272 371.679L563.322 374.678C563.322 374.678 555.319 390.685 540.829 398.671C526.338 406.657 517.829 407.686 517.829 407.686C517.829 407.686 529.32 382.176 529.32 360.17C529.32 338.165 517.742 328.173 517.742 328.173Z" fill="#263238" stroke="#263238" stroke-width="1.12548" stroke-linecap="round" stroke-linejoin="round"/>
<path d="M511.236 332.672C511.236 332.672 515.229 312.166 524.733 318.723C534.236 325.279 522.727 348.226 519.24 347.72C515.753 347.215 512.736 343.222 512.736 343.222" fill="white"/>
<path d="M511.236 332.672C511.236 332.672 515.229 312.166 524.733 318.723C534.236 325.279 522.727 348.226 519.24 347.72C515.753 347.215 512.736 343.222 512.736 343.222" stroke="#263238" stroke-width="1.12548" stroke-linecap="round" stroke-linejoin="round"/>
<path d="M698.283 400.45C698.283 400.45 713.523 397.398 717.08 397.398C720.637 397.398 721.649 400.886 720.114 401.461C718.58 402.037 716.051 402.996 716.051 402.996C716.051 402.996 722.154 404.513 720.114 406.03L716.051 409.081C716.051 409.081 721.143 411.627 719.103 413.65C717.355 414.982 715.215 415.699 713.017 415.69C713.017 415.69 718.092 418.741 715.04 420.258C711.989 421.775 704.874 419.247 704.874 419.247C701.85 422.453 698.232 425.041 694.22 426.867C690.16 428.38 685.757 428.73 681.509 427.878L671.814 433.406L665.205 418.672L698.283 400.45Z" fill="white" stroke="#263238" stroke-width="1.12548" stroke-linecap="round" stroke-linejoin="round"/>
<path d="M574.255 374.12C574.255 374.12 588.013 370.423 593.837 374.12C599.661 377.817 601.247 408.994 601.247 408.994L618.684 449.727L667.892 416.387L683.759 439.666C683.759 439.666 620.794 497.347 615.511 499.457C613.725 500.373 611.667 500.609 609.721 500.121C607.774 499.634 606.07 498.456 604.927 496.807C602.817 494.174 564.717 429.622 564.717 429.622" fill="#666666"/>
<path d="M574.255 374.12C574.255 374.12 588.013 370.423 593.837 374.12C599.661 377.817 601.247 408.994 601.247 408.994L618.684 449.727L667.892 416.387L683.759 439.666C683.759 439.666 620.794 497.347 615.511 499.457C613.725 500.373 611.667 500.609 609.721 500.121C607.774 499.634 606.07 498.456 604.927 496.807C602.817 494.174 564.717 429.622 564.717 429.622" stroke="#263238" stroke-width="1.12548" stroke-linecap="round" stroke-linejoin="round"/>
<path d="M725.275 432.22L694.395 433.702V565.979H731.065L725.275 432.22Z" fill="#666666" stroke="#263238" stroke-width="1.12548" stroke-linecap="round" stroke-linejoin="round"/>
<path d="M658.407 470.215L667.125 464.199C679.722 455.255 689.547 442.946 695.478 428.68L702.731 411.749H714.257L721.511 428.68C727.442 442.946 737.267 455.255 749.864 464.199L758.582 470.215C761.08 472.077 763.095 474.509 764.461 477.309C765.826 480.109 766.501 483.195 766.429 486.31H650.56C650.488 483.195 651.163 480.109 652.528 477.309C653.893 474.509 655.909 472.077 658.407 470.215ZM705.26 479.178H755.06C755.06 473.842 746.533 468.89 743.168 466.17L737.135 461.305C728.136 453.66 721.36 443.734 717.518 432.569L712.479 418.863H704.51L699.471 432.569C695.628 443.734 688.853 453.66 679.854 461.305L673.821 466.17C670.455 468.89 662.103 473.842 662.103 479.178H705.26Z" fill="white" stroke="#263238" stroke-width="1.12548" stroke-linecap="round" stroke-linejoin="round"/>
<path d="M708.552 411.47V399.037C708.552 399.037 701.455 393.702 701.455 386.012C701.455 378.322 707.366 375.358 713.888 377.729" stroke="#263238" stroke-width="1.12548" stroke-linecap="round" stroke-linejoin="round"/>
<path d="M725.276 432.22L711.919 550.234L695.528 428.663C695.528 428.663 667.507 457.347 658.282 462.386C649.058 467.425 640.671 474.121 638.16 487.53C635.649 500.939 622.24 635.047 622.24 635.047L653.243 636.791L650.453 712.624H775.564L768.031 633.443H797.36C797.36 633.443 778.929 488.437 773.89 478.376C768.851 468.315 725.276 432.22 725.276 432.22Z" fill="#6AB153" stroke="#263238" stroke-width="1.12548" stroke-linecap="round" stroke-linejoin="round"/>
<path d="M725.275 432.22L708.814 558.115L712.738 563.346L749.355 454.662C749.355 454.662 737.83 435.986 725.275 432.22Z" fill="#263238" stroke="#263238" stroke-width="1.12548" stroke-linecap="round" stroke-linejoin="round"/>
<path d="M695.478 428.68L717.971 594.785L666.898 453.336C666.898 453.336 695.635 425.89 695.478 428.68Z" fill="#263238" stroke="#263238" stroke-width="1.12548" stroke-linecap="round" stroke-linejoin="round"/>
<path d="M773.889 478.324C773.889 478.324 797.865 594.785 803.096 622.284C808.328 649.782 810.96 694.316 810.96 694.316L765.119 695.624L752.023 499.178" fill="#6AB153"/>
<path d="M773.889 478.324C773.889 478.324 797.865 594.785 803.096 622.284C808.328 649.782 810.96 694.316 810.96 694.316L765.119 695.624L752.023 499.178" stroke="#263238" stroke-width="1.12548" stroke-linecap="round" stroke-linejoin="round"/>
<path d="M764.302 698.867H811.993C813.081 698.867 813.963 697.984 813.963 696.896V683.33C813.963 682.242 813.081 681.36 811.993 681.36H764.302C763.214 681.36 762.332 682.242 762.332 683.33V696.896C762.332 697.984 763.214 698.867 764.302 698.867Z" fill="#263238" stroke="#263238" stroke-width="1.12548" stroke-linecap="round" stroke-linejoin="round"/>
<path d="M641.089 478.324C641.089 478.324 617.13 594.785 611.899 622.284C606.668 649.782 604.035 694.316 604.035 694.316L649.877 695.624L662.972 499.178" fill="#6AB153"/>
<path d="M641.089 478.324C641.089 478.324 617.13 594.785 611.899 622.284C606.668 649.782 604.035 694.316 604.035 694.316L649.877 695.624L662.972 499.178" stroke="#263238" stroke-width="1.12548" stroke-linecap="round" stroke-linejoin="round"/>
<path d="M602.658 698.867H650.348C651.436 698.867 652.318 697.984 652.318 696.896V683.33C652.318 682.242 651.436 681.36 650.348 681.36H602.658C601.57 681.36 600.687 682.242 600.687 683.33V696.896C600.687 697.984 601.57 698.867 602.658 698.867Z" fill="#263238" stroke="#263238" stroke-width="1.12548" stroke-linecap="round" stroke-linejoin="round"/>
<path d="M717.971 594.785V711.927" stroke="#263238" stroke-width="1.12548" stroke-linecap="round" stroke-linejoin="round"/>
<path d="M673.35 415.393C678.18 411.226 684.143 401.81 686.323 400.938C690.141 399.369 702.347 397.712 707.003 395.306C711.659 392.9 712.844 394.399 710.037 397.956C707.23 401.513 697.971 404.635 697.971 404.635C697.971 404.635 693.559 413.214 688.903 415.62L685.817 417.277" fill="white"/>
<path d="M673.35 415.393C678.18 411.226 684.143 401.81 686.323 400.938C690.141 399.369 702.347 397.712 707.003 395.306C711.659 392.9 712.844 394.399 710.037 397.956C707.23 401.513 697.971 404.635 697.971 404.635C697.971 404.635 693.559 413.214 688.903 415.62L685.817 417.277" stroke="#263238" stroke-width="1.12548" stroke-linecap="round" stroke-linejoin="round"/>
<path d="M2.22852 874.614H826.999" stroke="#263238" stroke-width="1.12548" stroke-linecap="round" stroke-linejoin="round"/>
<path d="M676.892 9.7804H203.051V73.314H676.892V9.7804Z" fill="#263238"/>
<path d="M200.144 9.7804L679.791 9.7804V-5.24521e-05L200.144 -5.24521e-05V9.7804Z" fill="#455A64"/>
<path d="M200.144 83.0834L679.791 83.0834V73.3029L200.144 73.3029V83.0834Z" fill="#455A64"/>
<path d="M263.34 28.8375C263.34 27.568 264.191 26.9332 265.892 26.9332C268.053 26.9332 270.39 27.9191 272.902 29.891C275.441 31.8358 277.656 34.8071 279.547 38.8048C282.086 44.2341 283.761 47.6781 284.571 49.1367C284.517 41.0062 284.287 35.8335 283.882 33.6186C283.477 31.3766 283.274 29.918 283.274 29.2427C283.274 28.5674 283.463 28.0136 283.842 27.5815C284.247 27.1493 284.719 26.9332 285.26 26.9332C285.827 26.9332 286.286 27.1493 286.637 27.5815C286.988 28.0136 287.164 28.6619 287.164 29.5263C287.164 30.3637 287.096 31.9168 286.961 34.1858C286.691 39.4801 286.556 44.7338 286.556 49.9471C286.556 50.5954 286.745 51.2841 287.124 52.0135C287.502 52.7428 287.691 53.31 287.691 53.7152C287.691 54.0934 287.515 54.4715 287.164 54.8497C286.813 55.2008 286.354 55.3764 285.786 55.3764C284.868 55.3764 284.071 54.8092 283.396 53.6747C282.721 52.5132 281.735 50.3793 280.438 47.2729C279.142 44.1666 278.196 41.9246 277.602 40.547C275.144 34.8476 271.943 31.5792 267.999 30.7418C267.918 32.5246 267.878 35.3608 267.878 39.2505C267.878 43.1401 267.999 46.368 268.242 48.9341C268.513 51.5002 268.648 52.9994 268.648 53.4316C268.648 53.8638 268.458 54.2959 268.08 54.7281C267.729 55.1603 267.27 55.3764 266.703 55.3764C266.135 55.3764 265.663 55.1603 265.285 54.7281C264.933 54.2959 264.758 53.8638 264.758 53.4316C264.758 52.9994 264.879 51.5002 265.123 48.9341C265.393 46.368 265.528 43.8424 265.528 41.3574C265.528 38.8723 265.474 35.2528 265.366 30.4987C264.825 30.4717 264.353 30.3231 263.948 30.053C263.542 29.7559 263.34 29.3507 263.34 28.8375ZM296.866 26.9332L305.05 27.1763L313.235 26.9332C313.667 26.9332 314.045 27.0817 314.369 27.3789C314.72 27.649 314.896 28.0272 314.896 28.5134C314.896 28.9996 314.72 29.3912 314.369 29.6884C314.045 29.9585 313.667 30.0935 313.235 30.0935L305.05 29.8504C304.348 29.8504 303.213 29.8774 301.647 29.9315C301.647 30.2556 301.62 30.8364 301.566 31.6737C301.404 34.1858 301.323 36.5358 301.323 38.7237C302.727 38.8318 304.037 38.8858 305.253 38.8858C306.495 38.8858 307.751 38.8453 309.021 38.7643C310.318 38.6832 311.101 38.6427 311.371 38.6427C311.668 38.6427 311.952 38.7778 312.222 39.0479C312.492 39.318 312.627 39.6692 312.627 40.1013C312.627 40.5335 312.492 40.8982 312.222 41.1953C311.952 41.4654 311.601 41.6005 311.168 41.6005L305.536 41.3979C304.132 41.3979 302.727 41.4519 301.323 41.56C301.323 44.8554 301.377 47.435 301.485 49.2988C301.62 51.1626 301.687 52.216 301.687 52.4592L313.761 52.216C314.194 52.216 314.572 52.3646 314.896 52.6617C315.247 52.9319 315.423 53.31 315.423 53.7962C315.423 54.2824 315.247 54.6741 314.896 54.9712C314.572 55.2413 314.194 55.3764 313.761 55.3764L305.982 55.1333C304.902 55.1333 303.619 55.1738 302.133 55.2549C300.647 55.3359 299.851 55.3764 299.742 55.3764C299.175 55.3764 298.703 55.1603 298.324 54.7281C297.973 54.2959 297.798 53.8638 297.798 53.4316C297.798 52.9994 297.852 51.5002 297.96 48.9341C298.095 46.368 298.162 43.8965 298.162 41.5194C298.162 39.1154 298.041 35.3068 297.798 30.0935H296.866C296.434 30.0935 296.042 29.9585 295.691 29.6884C295.367 29.3912 295.205 28.9996 295.205 28.5134C295.205 28.0272 295.367 27.649 295.691 27.3789C296.042 27.0817 296.434 26.9332 296.866 26.9332ZM336.842 44.9229C335.302 41.1683 334.532 38.3996 334.532 36.6168C334.532 34.8071 334.964 33.4025 335.829 32.403C336.693 31.4036 337.76 30.9039 339.029 30.9039C340.299 30.9039 341.312 31.3361 342.068 32.2004C342.852 33.0378 343.243 34.1318 343.243 35.4824C343.243 37.4812 342.163 40.2634 340.002 43.8289C341.704 48.529 342.622 51.1356 342.757 51.6488C344.459 50.0011 346.066 47.6376 347.579 44.5583C349.118 41.4519 349.888 38.3456 349.888 35.2392C349.888 33.9157 349.618 32.7002 349.078 31.5927C348.565 30.4852 348.308 29.6343 348.308 29.0401C348.308 28.4188 348.484 27.9191 348.835 27.5409C349.186 27.1358 349.632 26.9332 350.172 26.9332C351.063 26.9332 351.738 27.4464 352.198 28.4728C352.657 29.4993 352.886 30.8364 352.886 32.4841C352.886 34.1318 352.711 35.82 352.36 37.5487C352.036 39.2505 351.644 40.7631 351.185 42.0867C350.726 43.4103 350.118 44.7608 349.361 46.1384C348.632 47.489 347.997 48.583 347.457 49.4203C346.917 50.2307 346.269 51.1086 345.512 52.054C344.756 52.9724 344.256 53.5666 344.013 53.8367C343.77 54.0798 343.473 54.404 343.122 54.8092C342.771 55.1873 342.365 55.3764 341.906 55.3764C341.15 55.3764 340.529 54.8497 340.042 53.7962C339.745 53.1479 338.989 51.1086 337.773 47.6781C336.099 50.2712 334.343 52.4862 332.506 54.323L331.939 54.8902C331.615 55.2143 331.25 55.3764 330.845 55.3764C329.954 55.3764 329.332 54.8497 328.981 53.7962C326.766 47.7456 325.308 43.7479 324.605 41.8031C323.93 39.8312 323.268 38.035 322.62 36.4143C321.999 34.7936 321.539 33.6321 321.242 32.9298C320.594 31.255 320.27 30.0395 320.27 29.2832C320.27 28.4999 320.445 27.9191 320.797 27.5409C321.148 27.1358 321.58 26.9332 322.093 26.9332C323.174 26.9332 323.916 27.568 324.322 28.8375C324.457 29.2697 324.619 29.8774 324.808 30.6608C325.618 33.8211 326.888 37.8729 328.617 42.816C330.345 47.7591 331.372 50.7304 331.696 51.7298C333.235 50.1362 334.951 47.8672 336.842 44.9229ZM338.989 40.9117C339.475 40.3174 339.921 39.5071 340.326 38.4806C340.731 37.4272 340.934 36.5358 340.934 35.8065C340.934 35.0502 340.772 34.4424 340.448 33.9832C340.123 33.497 339.705 33.2539 339.192 33.2539C338.705 33.2539 338.273 33.4565 337.895 33.8617C337.544 34.2398 337.368 34.7395 337.368 35.3608C337.368 35.9821 337.557 36.9275 337.936 38.197C338.341 39.4396 338.692 40.3444 338.989 40.9117ZM390.853 42.9781L384.127 42.7755L378.981 42.897C378.738 43.4643 378.468 44.1801 378.171 45.0445C377.901 45.9088 377.536 46.9218 377.077 48.0833C376.618 49.2178 376.091 50.3658 375.497 51.5273C374.173 54.0934 372.904 55.3764 371.688 55.3764C370.635 55.3764 370.108 54.7821 370.108 53.5936C370.108 52.8373 370.851 51.7298 372.336 50.2712C372.958 49.704 373.66 48.7721 374.443 47.4755C375.254 46.179 375.956 44.6798 376.55 42.9781H375.092C374.659 42.9781 374.281 42.8565 373.957 42.6134C373.66 42.3433 373.511 41.9786 373.511 41.5194C373.511 41.0603 373.673 40.6821 373.998 40.385C374.322 40.0878 374.673 39.9393 375.051 39.9393L377.887 39.9798C380.183 34.8746 382.358 31.3496 384.411 29.4047C383.357 29.4047 381.763 29.5128 379.63 29.7289C377.496 29.918 376.199 30.0125 375.74 30.0125C375.308 30.0125 374.929 29.891 374.605 29.6478C374.281 29.3777 374.119 29.0131 374.119 28.5539C374.119 28.0677 374.281 27.676 374.605 27.3789C374.957 27.0817 375.335 26.9332 375.74 26.9332L384.573 27.1763L394.175 26.9332C394.661 26.9332 395.053 27.0817 395.35 27.3789C395.647 27.676 395.796 28.0542 395.796 28.5134C395.796 29.5128 395.242 30.0125 394.135 30.0125H393.162C393.162 34.3344 393.338 38.2375 393.689 41.722C394.04 45.2065 394.391 47.8942 394.743 49.785C395.094 51.6758 395.269 52.8778 395.269 53.3911C395.269 53.8773 395.107 54.3365 394.783 54.7686C394.486 55.1738 394.067 55.3764 393.527 55.3764C393.014 55.3764 392.568 55.1873 392.19 54.8092C391.812 54.431 391.609 53.8908 391.582 53.1885L390.853 42.9781ZM390.124 29.5263L389.111 29.4858C386.058 29.7829 383.087 33.2944 380.197 40.0203C382.52 40.0743 383.951 40.1013 384.492 40.1013C385.032 40.1013 387.085 40.0473 390.65 39.9393C390.299 33.9697 390.124 30.4987 390.124 29.5263ZM413.815 31.1065C413.463 30.6743 412.923 30.2826 412.194 29.9315C411.492 29.5533 410.627 29.3642 409.601 29.3642C408.574 29.3642 407.629 29.7424 406.764 30.4987C405.927 31.255 405.508 32.2004 405.508 33.3349C405.508 34.4424 405.995 35.3608 406.967 36.0901C407.966 36.8194 409.155 37.3867 410.533 37.7918C411.937 38.197 413.328 38.6562 414.706 39.1694C416.11 39.6556 417.299 40.466 418.271 41.6005C419.271 42.708 419.771 44.1396 419.771 45.8953C419.771 48.4344 418.704 50.6494 416.57 52.5402C414.463 54.431 411.802 55.3764 408.588 55.3764C406.454 55.3764 404.725 54.8497 403.402 53.7962C402.105 52.7158 401.457 51.5948 401.457 50.4333C401.457 49.812 401.632 49.3123 401.983 48.9341C402.335 48.529 402.767 48.3264 403.28 48.3264C403.82 48.3264 404.279 48.4884 404.658 48.8126C405.036 49.1097 405.387 49.4879 405.711 49.9471C406.062 50.4063 406.454 50.8655 406.886 51.3247C407.858 52.4051 409.223 52.9454 410.978 52.9454C412.761 52.9454 414.193 52.4321 415.273 51.4057C416.354 50.3793 416.894 49.0152 416.894 47.3134C416.894 46.0439 416.394 45.0175 415.395 44.2341C414.395 43.4238 413.18 42.8025 411.748 42.3703C410.344 41.9111 408.925 41.4384 407.494 40.9522C406.089 40.466 404.887 39.7367 403.888 38.7643C402.888 37.7648 402.389 36.5358 402.389 35.0772C402.389 33.5915 402.726 32.3085 403.402 31.228C404.104 30.1205 404.968 29.2697 405.995 28.6754C408.048 27.5139 409.979 26.9332 411.789 26.9332C413.625 26.9332 415.233 27.3248 416.61 28.1082C417.988 28.8915 418.677 29.8369 418.677 30.9444C418.677 31.5116 418.515 31.9708 418.19 32.322C417.866 32.6731 417.407 32.8487 416.813 32.8487C416.219 32.8487 415.651 32.6731 415.111 32.322C414.598 31.9438 414.166 31.5387 413.815 31.1065ZM429.351 29.1211C429.351 29.2022 429.284 30.4447 429.149 32.8487C429.041 35.2257 428.987 37.8594 428.987 40.7496C428.987 43.6399 429.041 46.368 429.149 48.9341C429.284 51.5002 429.351 52.9994 429.351 53.4316C429.351 53.8638 429.162 54.2959 428.784 54.7281C428.433 55.1603 427.974 55.3764 427.407 55.3764C426.839 55.3764 426.367 55.1603 425.988 54.7281C425.637 54.2959 425.462 53.8638 425.462 53.4316C425.462 52.9994 425.516 51.5002 425.624 48.9341C425.759 46.368 425.826 43.6399 425.826 40.7496C425.826 37.8594 425.759 35.2257 425.624 32.8487C425.516 30.4447 425.462 29.2022 425.462 29.1211C425.462 28.5539 425.637 28.0542 425.988 27.622C426.367 27.1628 426.839 26.9332 427.407 26.9332C427.974 26.9332 428.433 27.1628 428.784 27.622C429.162 28.0542 429.351 28.5539 429.351 29.1211ZM454.343 42.9781L447.617 42.7755L442.472 42.897C442.229 43.4643 441.958 44.1801 441.661 45.0445C441.391 45.9088 441.027 46.9218 440.567 48.0833C440.108 49.2178 439.581 50.3658 438.987 51.5273C437.664 54.0934 436.394 55.3764 435.179 55.3764C434.125 55.3764 433.598 54.7821 433.598 53.5936C433.598 52.8373 434.341 51.7298 435.827 50.2712C436.448 49.704 437.15 48.7721 437.934 47.4755C438.744 46.179 439.446 44.6798 440.041 42.9781H438.582C438.15 42.9781 437.772 42.8565 437.448 42.6134C437.15 42.3433 437.002 41.9786 437.002 41.5194C437.002 41.0603 437.164 40.6821 437.488 40.385C437.812 40.0878 438.163 39.9393 438.542 39.9393L441.378 39.9798C443.674 34.8746 445.848 31.3496 447.901 29.4047C446.848 29.4047 445.254 29.5128 443.12 29.7289C440.986 29.918 439.69 30.0125 439.23 30.0125C438.798 30.0125 438.42 29.891 438.096 29.6478C437.772 29.3777 437.61 29.0131 437.61 28.5539C437.61 28.0677 437.772 27.676 438.096 27.3789C438.447 27.0817 438.825 26.9332 439.23 26.9332L448.063 27.1763L457.666 26.9332C458.152 26.9332 458.544 27.0817 458.841 27.3789C459.138 27.676 459.286 28.0542 459.286 28.5134C459.286 29.5128 458.733 30.0125 457.625 30.0125H456.653C456.653 34.3344 456.828 38.2375 457.18 41.722C457.531 45.2065 457.882 47.8942 458.233 49.785C458.584 51.6758 458.76 52.8778 458.76 53.3911C458.76 53.8773 458.598 54.3365 458.273 54.7686C457.976 55.1738 457.558 55.3764 457.017 55.3764C456.504 55.3764 456.059 55.1873 455.68 54.8092C455.302 54.431 455.1 53.8908 455.073 53.1885L454.343 42.9781ZM453.614 29.5263L452.601 29.4858C449.549 29.7829 446.577 33.2944 443.687 40.0203C446.01 40.0743 447.442 40.1013 447.982 40.1013C448.522 40.1013 450.575 40.0473 454.141 39.9393C453.79 33.9697 453.614 30.4987 453.614 29.5263ZM499.703 49.6229L499.744 48.529C499.744 47.6916 499.676 46.7597 499.541 45.7333C499.433 44.7068 499.379 43.991 499.379 43.5858C499.379 43.1537 499.555 42.735 499.906 42.3298C500.284 41.8976 500.757 41.6815 501.324 41.6815C501.891 41.6815 502.35 41.8976 502.701 42.3298C503.08 42.735 503.269 43.1537 503.269 43.5858C503.269 43.991 503.201 44.7068 503.066 45.7333C502.958 46.7597 502.904 47.6916 502.904 48.529C502.904 49.3663 502.958 50.2982 503.066 51.3247C503.201 52.3511 503.269 53.0804 503.269 53.5126C503.269 53.9178 503.08 54.3365 502.701 54.7686C502.35 55.1738 501.891 55.3764 501.324 55.3764C500.757 55.3764 500.284 55.1738 499.906 54.7686C499.555 54.3365 499.379 53.8502 499.379 53.31V52.4592C496.921 54.404 494.314 55.3764 491.559 55.3764C488.048 55.3764 485.09 54.1204 482.686 51.6083C480.309 49.0692 479.12 46.0034 479.12 42.4108C479.12 37.9269 480.457 34.2263 483.132 31.3091C485.833 28.3918 489.263 26.9332 493.423 26.9332C495.827 26.9332 498.028 27.4059 500.027 28.3513C502.053 29.2967 503.066 30.3907 503.066 31.6332C503.066 32.2004 502.877 32.6731 502.499 33.0513C502.148 33.4295 501.716 33.6186 501.202 33.6186C500.689 33.6186 500.176 33.416 499.663 33.0108C499.149 32.6056 498.65 32.1599 498.164 31.6737C497.704 31.1605 496.962 30.7013 495.935 30.2961C494.936 29.891 493.747 29.6884 492.37 29.6884C489.263 29.6884 486.832 30.6743 485.076 32.6461C483.321 34.618 482.443 37.2246 482.443 40.466C482.443 43.7074 483.402 46.5436 485.32 48.9747C487.264 51.4057 489.79 52.6212 492.896 52.6212C495.246 52.6212 497.515 51.6218 499.703 49.6229ZM514.59 27.1763L520.586 26.9332C522.234 26.9332 523.855 27.4464 525.448 28.4728C526.259 29.0131 526.92 29.7829 527.434 30.7823C527.974 31.7818 528.244 32.9298 528.244 34.2263C528.244 36.4953 527.582 38.3591 526.259 39.8177C524.935 41.2493 523.368 42.2758 521.559 42.897C522.342 43.3292 523.112 43.8424 523.868 44.4367C525.921 46.1654 527.42 47.8132 528.365 49.3798C529.338 50.9465 529.824 52.3376 529.824 53.5531C529.824 54.7686 529.257 55.3764 528.122 55.3764C527.285 55.3764 526.502 54.5526 525.772 52.9048C525.475 52.2025 524.962 51.2841 524.233 50.1497C523.53 48.9882 522.72 47.9077 521.802 46.9083C519.884 44.8554 517.912 43.4643 515.886 42.735C515.913 44.9229 515.981 47.1244 516.089 49.3393C516.197 51.5543 516.251 52.9048 516.251 53.3911C516.251 53.8502 516.062 54.2959 515.684 54.7281C515.332 55.1603 514.873 55.3764 514.306 55.3764C513.739 55.3764 513.266 55.1603 512.888 54.7281C512.537 54.2959 512.361 53.8638 512.361 53.4316C512.361 52.9994 512.415 51.5002 512.523 48.9341C512.658 46.368 512.726 43.883 512.726 41.4789C512.726 39.0749 512.699 37.1031 512.645 35.5634C512.591 33.9967 512.523 32.7407 512.442 31.7953C512.388 30.8499 512.361 30.2421 512.361 29.972H511.632C511.2 29.972 510.808 29.8369 510.457 29.5668C510.133 29.2697 509.971 28.905 509.971 28.4728C509.971 28.0136 510.133 27.649 510.457 27.3789C510.808 27.0817 511.146 26.9332 511.47 26.9332C511.821 26.9332 512.28 26.9737 512.847 27.0547C513.442 27.1358 514.022 27.1763 514.59 27.1763ZM518.601 29.7289L516.251 29.7694C516.251 30.0665 516.21 30.6608 516.129 31.5522C515.967 33.9292 515.886 36.914 515.886 40.5065C517.237 40.8847 518.223 41.0738 518.844 41.0738C519.465 41.0738 520.086 41.0062 520.708 40.8712C521.356 40.7091 522.045 40.4525 522.774 40.1013C523.53 39.7502 524.152 39.1965 524.638 38.4401C525.124 37.6568 525.367 36.7519 525.367 35.7255C525.367 33.6726 524.705 32.1599 523.382 31.1875C522.085 30.2151 520.492 29.7289 518.601 29.7289ZM537.404 40.4255C537.404 43.6939 538.363 46.5436 540.281 48.9747C542.226 51.4057 544.711 52.6212 547.736 52.6212C550.761 52.6212 553.152 51.6623 554.908 49.7445C556.69 47.7996 557.582 45.193 557.582 41.9246C557.582 38.6292 556.609 35.766 554.664 33.3349C552.747 30.9039 550.262 29.6884 547.209 29.6884C544.184 29.6884 541.793 30.6608 540.038 32.6056C538.282 34.5234 537.404 37.1301 537.404 40.4255ZM546.52 55.3764C543.009 55.3764 540.051 54.1204 537.647 51.6083C535.27 49.0692 534.082 46.0034 534.082 42.4108C534.082 37.9269 535.432 34.2263 538.133 31.3091C540.834 28.3918 544.278 26.9332 548.465 26.9332C551.977 26.9332 554.921 28.2027 557.298 30.7418C559.702 33.2539 560.904 36.3062 560.904 39.8988C560.904 44.3827 559.554 48.0833 556.852 51.0005C554.151 53.9178 550.707 55.3764 546.52 55.3764ZM566.533 44.8419L566.735 36.5763C566.735 34.7936 566.668 33.1999 566.533 31.7953C566.424 30.3637 566.37 29.4182 566.37 28.9591C566.37 28.4999 566.546 28.0542 566.897 27.622C567.275 27.1628 567.748 26.9332 568.315 26.9332C568.883 26.9332 569.342 27.1628 569.693 27.622C570.071 28.0542 570.26 28.5539 570.26 29.1211C570.26 29.2022 570.193 30.4447 570.058 32.8487C569.95 35.2257 569.895 37.6703 569.895 40.1824C569.895 42.6945 570.071 44.6798 570.422 46.1384C570.773 47.57 571.206 48.691 571.719 49.5014C572.259 50.3117 572.921 50.96 573.704 51.4462C574.514 51.9054 575.284 52.216 576.014 52.3781C576.743 52.5132 577.58 52.5807 578.526 52.5807C580.498 52.5807 582.496 51.7568 584.522 50.1091C584.684 46.0574 584.765 42.762 584.765 40.2229C584.765 37.6838 584.698 35.2257 584.563 32.8487C584.455 30.4447 584.401 29.2022 584.401 29.1211C584.401 28.5539 584.576 28.0542 584.927 27.622C585.306 27.1628 585.778 26.9332 586.346 26.9332C586.913 26.9332 587.372 27.1628 587.723 27.622C588.101 28.0542 588.29 28.5539 588.29 29.1211C588.29 29.2022 588.223 30.4447 588.088 32.8487C587.98 35.2257 587.926 37.8594 587.926 40.7496C587.926 43.6399 587.98 46.368 588.088 48.9341C588.223 51.5002 588.29 52.9994 588.29 53.4316C588.29 53.8638 588.101 54.2959 587.723 54.7281C587.372 55.1603 586.913 55.3764 586.346 55.3764C585.778 55.3764 585.306 55.1603 584.927 54.7281C584.576 54.2959 584.401 53.8097 584.401 53.2695V52.0945C581.673 54.2824 578.944 55.3764 576.216 55.3764C573.488 55.3764 571.192 54.4175 569.328 52.4997C567.464 50.5548 566.533 48.0022 566.533 44.8419ZM601.612 27.1763L608.743 26.9332C610.688 26.9332 612.484 27.73 614.132 29.3237C615.779 30.9174 616.603 32.6326 616.603 34.4694C616.603 36.2792 616.266 37.9134 615.59 39.372C614.942 40.8307 614.091 42.0057 613.038 42.897C610.904 44.7879 608.608 45.7333 606.15 45.7333C605.069 45.7333 604.232 45.5442 603.638 45.166C603.07 44.7608 602.787 44.2476 602.787 43.6264C602.787 43.0051 602.962 42.5189 603.314 42.1677C603.692 41.7896 604.056 41.6005 604.407 41.6005C604.786 41.6005 605.393 41.7626 606.231 42.0867C607.068 42.4108 607.892 42.5729 608.702 42.5729C610.134 42.5729 611.363 42.0597 612.389 41.0332C613.416 40.0068 613.929 38.5212 613.929 36.5763C613.929 34.6315 613.173 33.0108 611.66 31.7142C610.174 30.3907 608.338 29.7289 606.15 29.7289C604.934 29.7289 603.543 29.7559 601.976 29.8099C601.652 32.1329 601.49 39.4801 601.49 51.8514C601.49 54.2014 600.747 55.3764 599.262 55.3764C598.695 55.3764 598.181 55.1603 597.722 54.7281C597.29 54.2959 597.074 53.7557 597.074 53.1074C597.074 52.4321 597.357 51.6893 597.925 50.879C598.519 50.0686 598.816 49.2178 598.816 48.3264C598.816 41.4654 598.627 35.3608 598.249 30.0125H597.438C597.006 30.0125 596.615 29.8774 596.263 29.6073C595.939 29.3102 595.777 28.932 595.777 28.4728C595.777 28.0136 595.939 27.649 596.263 27.3789C596.615 27.0817 597.006 26.9332 597.438 26.9332L601.612 27.1763Z" fill="white"/>
</svg>
