<svg width="16" height="16" viewBox="0 0 16 16" fill="none" xmlns="http://www.w3.org/2000/svg">
<path d="M4.5 11.5V7.125M8 11.5V4.5M11.5 11.5V9.75M13.25 1H2.75C2.28587 1 1.84075 1.18437 1.51256 1.51256C1.18437 1.84075 1 2.28587 1 2.75V13.25C1 13.7141 1.18437 14.1592 1.51256 14.4874C1.84075 14.8156 2.28587 15 2.75 15H13.25C13.7141 15 14.1592 14.8156 14.4874 14.4874C14.8156 14.1592 15 13.7141 15 13.25V2.75C15 2.28587 14.8156 1.84075 14.4874 1.51256C14.1592 1.18437 13.7141 1 13.25 1Z" stroke="black" stroke-linecap="round" stroke-linejoin="round"/>
</svg>
