<svg width="19" height="19" viewBox="0 0 19 19" fill="none" xmlns="http://www.w3.org/2000/svg">
<path d="M4.75 0.580598C4.75 0.426614 4.68744 0.278936 4.57609 0.170053C4.46475 0.06117 4.31372 0 4.15625 0C3.99878 0 3.84776 0.06117 3.73641 0.170053C3.62506 0.278936 3.5625 0.426614 3.5625 0.580598V1.1612H2.375C1.74511 1.1612 1.14102 1.40588 0.695621 1.84141C0.250223 2.27694 0 2.86765 0 3.48359L0 4.64478H19V3.48359C19 2.86765 18.7498 2.27694 18.3044 1.84141C17.859 1.40588 17.2549 1.1612 16.625 1.1612H15.4375V0.580598C15.4375 0.426614 15.3749 0.278936 15.2636 0.170053C15.1522 0.06117 15.0012 0 14.8438 0C14.6863 0 14.5353 0.06117 14.4239 0.170053C14.3126 0.278936 14.25 0.426614 14.25 0.580598V1.1612H4.75V0.580598ZM11.1649 11.8976C11.9071 11.8976 12.5709 11.3356 12.5709 10.5274C12.5709 9.56129 11.9451 9.09913 11.1934 9.09913C10.4975 9.09913 9.80638 9.54851 9.80638 10.5042C9.80638 11.4529 10.4512 11.8976 11.1649 11.8976Z" fill="#6E6B7B"/>
<path d="M19 16.2568V5.80597H0V16.2568C0 16.8727 0.250223 17.4634 0.695621 17.8989C1.14102 18.3345 1.74511 18.5791 2.375 18.5791H16.625C17.2549 18.5791 17.859 18.3345 18.3044 17.8989C18.7498 17.4634 19 16.8727 19 16.2568ZM11.0865 14.8517C9.76838 14.8517 9.12 13.9611 9.06419 13.2179H9.87525C9.92631 13.6475 10.3348 14.1701 11.1233 14.1701C12.1256 14.1701 12.6683 13.1854 12.673 11.6572H12.6409C12.4593 12.138 11.8845 12.5746 10.9986 12.5746C9.98688 12.5746 9.00838 11.8663 9.00838 10.5193C9.00838 9.19899 10.0427 8.41866 11.1423 8.41866C12.5341 8.41866 13.4615 9.27098 13.4615 11.5167C13.4615 13.6127 12.5804 14.8505 11.0865 14.8505V14.8517ZM7.65462 8.54059V14.7321H6.85187V9.3813H6.83763C6.49325 9.56245 5.78906 9.98512 5.34375 10.2835V9.47535C5.8435 9.13297 6.3642 8.8208 6.90294 8.54059H7.65344H7.65462Z" fill="#6E6B7B"/>
</svg>
