<svg id="Estimated_Consumption_Calculation_Icon" data-name="Estimated Consumption Calculation Icon" xmlns="http://www.w3.org/2000/svg" width="20" height="20" viewBox="0 0 20 20">
  <path id="Path_1693" data-name="Path 1693" d="M12.309,7.692h4.615V9.231H12.309ZM7.694,13.846H6.155V12.308H4.617v1.538H3.078v1.538H4.617v1.538H6.155V15.385H7.694ZM3.078,4.615H7.694V6.154H3.078Zm9.231,6.154h4.615v1.538H12.309Z" fill="#fff"/>
  <path id="Path_1694" data-name="Path 1694" d="M18.462,0H1.538A1.54,1.54,0,0,0,0,1.538V18.462A1.54,1.54,0,0,0,1.538,20H18.462A1.54,1.54,0,0,0,20,18.462V1.538A1.54,1.54,0,0,0,18.462,0ZM9.231,1.538V9.231H1.538V1.538ZM1.538,10.769H9.231v7.692H1.538Zm9.231,7.692V1.538h7.692V18.462Z" fill="#fff"/>
</svg>
