<svg width="20" height="20" viewBox="0 0 20 20" fill="none" xmlns="http://www.w3.org/2000/svg">
<path d="M12.3089 7.69229H16.9243V9.23076H12.3089V7.69229ZM7.69352 13.8462H6.15506V12.3077H4.61659V13.8462H3.07812V15.3846H4.61659V16.9231H6.15506V15.3846H7.69352V13.8462ZM3.07812 4.61535H7.69352V6.15382H3.07812V4.61535ZM12.3089 10.7692H16.9243V12.3077H12.3089V10.7692Z" fill="#6E6B7B"/>
<path d="M18.4616 0H1.53847C1.13056 0.00040729 0.739486 0.162626 0.451056 0.451055C0.162626 0.739484 0.000407291 1.13056 0 1.53846V18.4615C0.000407291 18.8694 0.162626 19.2605 0.451056 19.5489C0.739486 19.8374 1.13056 19.9996 1.53847 20H18.4616C18.8695 19.9996 19.2606 19.8374 19.549 19.5489C19.8374 19.2605 19.9996 18.8694 20 18.4615V1.53846C19.9996 1.13056 19.8374 0.739484 19.549 0.451055C19.2606 0.162626 18.8695 0.00040729 18.4616 0ZM9.23079 1.53846V9.23077H1.53847V1.53846H9.23079ZM1.53847 10.7692H9.23079V18.4615H1.53847V10.7692ZM10.7693 18.4615V1.53846H18.4616V18.4615H10.7693Z" fill="#6E6B7B"/>
</svg>
