<svg width="19" height="15" viewBox="0 0 19 15" fill="none" xmlns="http://www.w3.org/2000/svg">
<path d="M0.00170897 1.76652C0.00170898 1.56973 0.182242 1.41002 0.404685 1.41002L7.03062 1.41002C7.25306 1.41002 7.43359 1.56973 7.43359 1.76653C7.43359 1.96332 7.25306 2.12303 7.03062 2.12303L0.404685 2.12303C0.182242 2.12303 0.00170895 1.96349 0.00170897 1.76652Z" fill="white"/>
<path d="M6.17517 12.3889C6.17517 12.1921 6.3557 12.0324 6.57814 12.0324L17.7318 12.0324C17.9542 12.0324 18.1348 12.1921 18.1348 12.3889C18.1348 12.5857 17.9542 12.7455 17.7318 12.7455L6.57814 12.7455C6.3555 12.7455 6.17517 12.5857 6.17517 12.3889Z" fill="white"/>
<path d="M0.00122068 7.07777C0.00122069 6.88097 0.181754 6.72125 0.404196 6.72125L12.5091 6.72125C12.7316 6.72125 12.9121 6.88097 12.9121 7.07777C12.9121 7.27457 12.7316 7.4343 12.5091 7.4343L0.404196 7.43429C0.181754 7.43429 0.00122067 7.27457 0.00122068 7.07777Z" fill="white"/>
<path d="M12.1061 7.07777C12.1061 6.10375 13.0017 5.3112 14.1028 5.3112C15.204 5.3112 16.0996 6.10357 16.0996 7.07777C16.0996 8.05196 15.204 8.84433 14.1028 8.84433C13.0017 8.84433 12.1061 8.05196 12.1061 7.07777ZM15.2934 7.07777C15.2934 6.49681 14.7593 6.02425 14.1026 6.02425C13.446 6.02425 12.9118 6.49681 12.9118 7.07777C12.9118 7.65872 13.446 8.13129 14.1026 8.13129C14.7593 8.13129 15.2934 7.65872 15.2934 7.07777Z" fill="white"/>
<path d="M6.62756 1.76653C6.62756 0.792533 7.52319 -1.19803e-07 8.62433 -7.72194e-08C9.72527 -3.46436e-08 10.6211 0.792355 10.6211 1.76653C10.6211 2.74071 9.72547 3.53307 8.62433 3.53307C7.52319 3.53307 6.62756 2.74053 6.62756 1.76653ZM9.81513 1.76653C9.81513 1.18559 9.28098 0.71303 8.62433 0.71303C7.96767 0.71303 7.43352 1.18559 7.43352 1.76653C7.43352 2.34747 7.96767 2.82004 8.62433 2.82004C9.28098 2.82004 9.81513 2.34747 9.81513 1.76653Z" fill="white"/>
<path d="M2.98914 12.389C2.98914 11.4149 3.88475 10.6226 4.98588 10.6226C6.08681 10.6226 6.98242 11.4149 6.98242 12.389C6.98242 13.3631 6.08681 14.1555 4.98588 14.1555C3.88495 14.1555 2.98914 13.3631 2.98914 12.389ZM6.17667 12.389C6.17667 11.808 5.64273 11.3356 4.98608 11.3356C4.32943 11.3356 3.79529 11.808 3.79529 12.389C3.79529 12.9699 4.32943 13.4425 4.98608 13.4425C5.64273 13.4425 6.17667 12.9699 6.17667 12.389Z" fill="white"/>
<path d="M9.81433 1.76652C9.81433 1.56973 9.99486 1.41002 10.2173 1.41002L17.7318 1.41002C17.9542 1.41002 18.1348 1.56973 18.1348 1.76653C18.1348 1.96332 17.9542 2.12303 17.7318 2.12303L10.2173 2.12303C9.99466 2.12303 9.81433 1.96349 9.81433 1.76652Z" fill="white"/>
<path d="M15.2932 7.07777C15.2932 6.88097 15.4737 6.72125 15.6962 6.72125L17.7318 6.72125C17.9542 6.72125 18.1348 6.88097 18.1348 7.07777C18.1348 7.27457 17.9542 7.4343 17.7318 7.4343L15.6962 7.4343C15.4737 7.4343 15.2932 7.27457 15.2932 7.07777Z" fill="white"/>
<path d="M0.00231956 12.3889C0.00231957 12.1921 0.182853 12.0324 0.405295 12.0324L3.39195 12.0324C3.61439 12.0324 3.79492 12.1921 3.79492 12.3889C3.79492 12.5857 3.61439 12.7455 3.39195 12.7455L0.405295 12.7455C0.182852 12.7455 0.00231954 12.5857 0.00231956 12.3889Z" fill="white"/>
</svg>
