<svg width="31" height="30" viewBox="0 0 31 30" fill="none" xmlns="http://www.w3.org/2000/svg">
<path d="M6.49846 15.8012L15.2511 24.6044C15.4884 24.8181 15.7983 24.9327 16.1172 24.9245C16.436 24.9164 16.7397 24.7862 16.9659 24.5607C17.192 24.3352 17.3235 24.0314 17.3333 23.7118C17.343 23.3921 17.2304 23.0809 17.0185 22.8419L10.44 16.2231L29.6753 16.2231C29.8453 16.2336 30.0157 16.209 30.1759 16.151C30.3362 16.0929 30.4828 16.0026 30.6069 15.8856C30.731 15.7685 30.8299 15.6273 30.8975 15.4705C30.9651 15.3137 31 15.1447 31 14.9739C31 14.8031 30.9651 14.6341 30.8975 14.4773C30.8299 14.3205 30.731 14.1793 30.6069 14.0622C30.4828 13.9452 30.3362 13.8549 30.1759 13.7968C30.0157 13.7388 29.8453 13.7142 29.6753 13.7247L10.3511 13.7247L17.0138 7.11062C17.2403 6.87514 17.3659 6.56009 17.3636 6.23295C17.3613 5.90581 17.2313 5.59258 17.0015 5.36033C16.7717 5.12808 16.4603 4.99529 16.134 4.99037C15.8077 4.98546 15.4925 5.10883 15.2558 5.33405L6.50314 14.0294C6.38693 14.1456 6.29474 14.2837 6.23184 14.4357C6.16893 14.5878 6.13655 14.7507 6.13655 14.9153C6.13655 15.0799 6.16893 15.2429 6.23184 15.3949C6.29474 15.5469 6.38693 15.685 6.50314 15.8012L6.49846 15.8012Z" fill="#FCFCFF"/>
<path d="M0.99887 26.25L0.998871 3.75C0.998871 2.75544 1.39295 1.80161 2.09443 1.09835C2.7959 0.395088 3.7473 -4.76163e-07 4.73933 -4.328e-07L13.4686 -5.12303e-08C13.7859 0.0194939 14.0838 0.159593 14.3016 0.391725C14.5194 0.623857 14.6406 0.930537 14.6406 1.24922C14.6406 1.5679 14.5194 1.87458 14.3016 2.10671C14.0838 2.33884 13.7859 2.47894 13.4686 2.49844L4.73933 2.49844C4.40824 2.49844 4.09071 2.6303 3.85659 2.86501C3.62247 3.09972 3.49095 3.41806 3.49095 3.75L3.49095 26.25C3.49095 26.5819 3.62247 26.9003 3.85659 27.135C4.09071 27.3697 4.40823 27.5016 4.73932 27.5016L13.4686 27.5016C13.7859 27.5211 14.0838 27.6612 14.3016 27.8933C14.5194 28.1254 14.6406 28.4321 14.6406 28.7508C14.6406 29.0695 14.5194 29.3761 14.3016 29.6083C14.0838 29.8404 13.7859 29.9805 13.4686 30L4.73932 30C3.74729 30 2.7959 29.6049 2.09442 28.9016C1.39295 28.1984 0.99887 27.2446 0.99887 26.25Z" fill="#FCFCFF"/>
</svg>
