<svg width="336" height="336" viewBox="0 0 336 336" fill="none" xmlns="http://www.w3.org/2000/svg">
<g clip-path="url(#clip0_1047_3)">
<path d="M168 62.9997C164.457 62.9997 160.956 63.5275 157.605 64.3668C155.645 64.8637 153.755 65.5162 151.865 66.2809C151.139 66.5785 150.396 66.7651 149.679 67.1012C149.382 67.2397 149.154 67.5032 148.86 67.6481C147.082 68.5282 145.341 69.5472 143.665 70.6559C143.429 70.8082 143.078 70.7731 142.844 70.9294C142.351 71.2675 141.96 71.666 141.477 72.0227C140.104 73.0079 138.663 73.9127 137.375 75.0309C136.201 76.087 135.193 77.4144 134.094 78.5852C130.374 82.3993 127.15 86.4347 124.523 91.1641C120.014 99.0689 116.646 107.969 115.227 117.14C114.542 116.996 113.914 116.944 113.313 117.14C108.718 118.637 107.586 127.365 110.578 136.554C112.335 141.947 115.256 146.192 118.235 148.585C122.236 164.141 130.71 177.108 141.75 185.228V194.25L133 203L115.5 211.75C101.349 218.758 87.2517 225.793 73.117 232.802C65.2846 237.527 62.2539 246.802 63.0003 255.5C63.3648 260.977 61.3861 267.986 66.8284 271.635C71.9988 274.295 78.1675 272.562 83.7815 273C100.202 272.991 116.58 273 133 273C156.354 273.008 179.646 273 203 273C223.712 273 244.362 273.035 265.073 273C271.793 272.527 273.657 265.431 273 259.875C273.123 251.72 273.604 242.585 267.26 236.355C262.08 231.087 254.713 229.005 248.395 225.417C239.112 220.823 229.775 216.343 220.5 211.75L203 203L194.25 194.25V185.228C205.293 177.108 213.763 164.141 217.77 148.585C220.745 146.191 223.668 141.946 225.418 136.554C228.41 127.365 227.282 118.637 222.688 117.14C222.084 116.944 221.463 116.996 220.772 117.14C219.354 107.969 215.985 99.0689 211.479 91.1641C208.854 86.4347 205.625 82.3993 201.906 78.5852C200.804 77.4144 199.798 76.087 198.625 75.0309C198.573 74.9828 198.407 75.079 198.354 75.0309C194.924 71.9693 191.118 69.6152 187.145 67.6481C186.139 67.1562 185.159 66.6984 184.135 66.2809C183.4 65.9833 182.691 65.7186 181.948 65.4606C179.717 64.6864 177.433 63.9419 175.105 63.5465C174.93 63.5167 174.738 63.5741 174.563 63.5465C172.384 63.204 170.232 62.9756 168 62.9997Z" fill="#5B5B5B"/>
</g>
<circle cx="168" cy="168" r="166.5" stroke="#5B5B5B" stroke-width="3"/>
<defs>
<clipPath id="clip0_1047_3">
<rect width="210" height="210" fill="white" transform="translate(63 63)"/>
</clipPath>
</defs>
</svg>
